<mxfile host="Electron" modified="2025-01-23T12:48:38.316Z" agent="Mozilla/5.0 (Windows NT 10.0; Win64; x64) AppleWebKit/537.36 (KHTML, like Gecko) draw.io/22.0.3 Chrome/114.0.5735.289 Electron/25.8.4 Safari/537.36" etag="gV3c6xF9mJAhCQMmv152" version="22.0.3" type="device" pages="2">
  <diagram name="Version 1" id="Mu4fUp_nVmmmw5QDZqeR">
    <mxGraphModel dx="2520" dy="2531" grid="1" gridSize="10" guides="1" tooltips="1" connect="1" arrows="1" fold="1" page="1" pageScale="1" pageWidth="827" pageHeight="1169" math="0" shadow="0">
      <root>
        <mxCell id="0" />
        <mxCell id="1" parent="0" />
        <mxCell id="T0Xdmzh6fm86NqFBJJNO-1" value="Raspberry pi 0 2W" style="whiteSpace=wrap;html=1;aspect=fixed;strokeColor=#000000;" parent="1" vertex="1">
          <mxGeometry x="-110" y="-59.53" width="269.06" height="269.06" as="geometry" />
        </mxCell>
        <mxCell id="T0Xdmzh6fm86NqFBJJNO-4" value="" style="endArrow=none;html=1;rounded=0;exitX=0.996;exitY=0.411;exitDx=0;exitDy=0;exitPerimeter=0;strokeColor=#CC00CC;" parent="1" source="T0Xdmzh6fm86NqFBJJNO-1" edge="1">
          <mxGeometry width="50" height="50" relative="1" as="geometry">
            <mxPoint x="170" y="50" as="sourcePoint" />
            <mxPoint x="300" y="50" as="targetPoint" />
          </mxGeometry>
        </mxCell>
        <mxCell id="MLTENWg7W5GYcg1RoTJv-2" value="GPIO_3" style="edgeLabel;html=1;align=center;verticalAlign=middle;resizable=0;points=[];" parent="T0Xdmzh6fm86NqFBJJNO-4" vertex="1" connectable="0">
          <mxGeometry x="-0.6806" y="4" relative="1" as="geometry">
            <mxPoint x="-43" as="offset" />
          </mxGeometry>
        </mxCell>
        <mxCell id="T0Xdmzh6fm86NqFBJJNO-5" value="SCL&lt;br&gt;" style="text;html=1;align=center;verticalAlign=middle;resizable=0;points=[];autosize=1;strokeColor=none;fillColor=none;" parent="1" vertex="1">
          <mxGeometry x="230" y="20" width="50" height="30" as="geometry" />
        </mxCell>
        <mxCell id="T0Xdmzh6fm86NqFBJJNO-9" value="SDA" style="text;html=1;align=center;verticalAlign=middle;resizable=0;points=[];autosize=1;strokeColor=none;fillColor=none;" parent="1" vertex="1">
          <mxGeometry x="230" y="69.05" width="50" height="30" as="geometry" />
        </mxCell>
        <mxCell id="T0Xdmzh6fm86NqFBJJNO-19" value="" style="endArrow=none;html=1;rounded=0;strokeColor=#CC00CC;" parent="1" edge="1">
          <mxGeometry width="50" height="50" relative="1" as="geometry">
            <mxPoint x="159.05999999999995" y="90.00182669619204" as="sourcePoint" />
            <mxPoint x="300" y="90" as="targetPoint" />
          </mxGeometry>
        </mxCell>
        <mxCell id="rj669WNodHKwo_dSb1iq-77" value="GPIO_2" style="edgeLabel;html=1;align=center;verticalAlign=middle;resizable=0;points=[];" parent="T0Xdmzh6fm86NqFBJJNO-19" vertex="1" connectable="0">
          <mxGeometry x="-0.6716" y="3" relative="1" as="geometry">
            <mxPoint x="-52" y="-3" as="offset" />
          </mxGeometry>
        </mxCell>
        <mxCell id="1BdTyNFNl_WO69o5SPWn-1" value="" style="endArrow=none;html=1;rounded=0;strokeColor=#FF3333;" parent="1" edge="1">
          <mxGeometry width="50" height="50" relative="1" as="geometry">
            <mxPoint x="50" y="-60" as="sourcePoint" />
            <mxPoint x="50" y="-75" as="targetPoint" />
          </mxGeometry>
        </mxCell>
        <mxCell id="1BdTyNFNl_WO69o5SPWn-8" value="TP4056" style="rounded=0;whiteSpace=wrap;html=1;strokeColor=#FF3333;" parent="1" vertex="1">
          <mxGeometry x="620" y="430" width="120" height="60" as="geometry" />
        </mxCell>
        <mxCell id="1BdTyNFNl_WO69o5SPWn-9" value="" style="endArrow=none;html=1;rounded=0;strokeColor=#FF3333;" parent="1" edge="1">
          <mxGeometry width="50" height="50" relative="1" as="geometry">
            <mxPoint x="680" y="430" as="sourcePoint" />
            <mxPoint x="680" y="360" as="targetPoint" />
          </mxGeometry>
        </mxCell>
        <mxCell id="1BdTyNFNl_WO69o5SPWn-10" value="USB C&lt;br&gt;" style="edgeLabel;html=1;align=center;verticalAlign=middle;resizable=0;points=[];strokeColor=#FF3333;" parent="1BdTyNFNl_WO69o5SPWn-9" vertex="1" connectable="0">
          <mxGeometry x="0.395" y="-1" relative="1" as="geometry">
            <mxPoint x="-1" y="-31" as="offset" />
          </mxGeometry>
        </mxCell>
        <mxCell id="1BdTyNFNl_WO69o5SPWn-11" value="" style="endArrow=none;html=1;rounded=0;strokeColor=#FF3333;" parent="1" edge="1">
          <mxGeometry width="50" height="50" relative="1" as="geometry">
            <mxPoint x="570" y="440" as="sourcePoint" />
            <mxPoint x="620" y="440" as="targetPoint" />
          </mxGeometry>
        </mxCell>
        <mxCell id="1BdTyNFNl_WO69o5SPWn-12" value="B -&lt;br&gt;" style="edgeLabel;html=1;align=center;verticalAlign=middle;resizable=0;points=[];strokeColor=#FF3333;" parent="1BdTyNFNl_WO69o5SPWn-11" vertex="1" connectable="0">
          <mxGeometry x="-0.4514" y="2" relative="1" as="geometry">
            <mxPoint x="26" y="-8" as="offset" />
          </mxGeometry>
        </mxCell>
        <mxCell id="1BdTyNFNl_WO69o5SPWn-13" value="" style="endArrow=none;html=1;rounded=0;strokeColor=#FF3333;" parent="1" edge="1">
          <mxGeometry width="50" height="50" relative="1" as="geometry">
            <mxPoint x="570" y="480" as="sourcePoint" />
            <mxPoint x="620" y="480" as="targetPoint" />
          </mxGeometry>
        </mxCell>
        <mxCell id="1BdTyNFNl_WO69o5SPWn-14" value="B+&lt;br&gt;" style="edgeLabel;html=1;align=center;verticalAlign=middle;resizable=0;points=[];strokeColor=#FF3333;" parent="1BdTyNFNl_WO69o5SPWn-13" vertex="1" connectable="0">
          <mxGeometry x="-0.5835" y="-3" relative="1" as="geometry">
            <mxPoint x="29" y="7" as="offset" />
          </mxGeometry>
        </mxCell>
        <mxCell id="1BdTyNFNl_WO69o5SPWn-15" value="" style="endArrow=none;html=1;rounded=0;exitX=0.25;exitY=0;exitDx=0;exitDy=0;strokeColor=#FF3333;" parent="1" source="1BdTyNFNl_WO69o5SPWn-21" edge="1">
          <mxGeometry width="50" height="50" relative="1" as="geometry">
            <mxPoint x="659" y="540" as="sourcePoint" />
            <mxPoint x="659" y="490" as="targetPoint" />
          </mxGeometry>
        </mxCell>
        <mxCell id="1BdTyNFNl_WO69o5SPWn-16" value="OUT +" style="edgeLabel;html=1;align=center;verticalAlign=middle;resizable=0;points=[];strokeColor=#FF3333;" parent="1BdTyNFNl_WO69o5SPWn-15" vertex="1" connectable="0">
          <mxGeometry x="0.616" relative="1" as="geometry">
            <mxPoint as="offset" />
          </mxGeometry>
        </mxCell>
        <mxCell id="1BdTyNFNl_WO69o5SPWn-35" value="Vin" style="edgeLabel;html=1;align=center;verticalAlign=middle;resizable=0;points=[];" parent="1BdTyNFNl_WO69o5SPWn-15" vertex="1" connectable="0">
          <mxGeometry x="-0.6422" y="-2" relative="1" as="geometry">
            <mxPoint x="-12" as="offset" />
          </mxGeometry>
        </mxCell>
        <mxCell id="1BdTyNFNl_WO69o5SPWn-17" value="" style="endArrow=none;html=1;rounded=0;exitX=0.75;exitY=0;exitDx=0;exitDy=0;strokeColor=#FF3333;" parent="1" source="1BdTyNFNl_WO69o5SPWn-21" edge="1">
          <mxGeometry width="50" height="50" relative="1" as="geometry">
            <mxPoint x="720" y="540" as="sourcePoint" />
            <mxPoint x="720" y="490" as="targetPoint" />
          </mxGeometry>
        </mxCell>
        <mxCell id="1BdTyNFNl_WO69o5SPWn-18" value="OUT -" style="edgeLabel;html=1;align=center;verticalAlign=middle;resizable=0;points=[];strokeColor=#FF3333;" parent="1BdTyNFNl_WO69o5SPWn-17" vertex="1" connectable="0">
          <mxGeometry x="0.496" y="-2" relative="1" as="geometry">
            <mxPoint as="offset" />
          </mxGeometry>
        </mxCell>
        <mxCell id="1BdTyNFNl_WO69o5SPWn-36" value="Gnd&lt;br&gt;" style="edgeLabel;html=1;align=center;verticalAlign=middle;resizable=0;points=[];" parent="1BdTyNFNl_WO69o5SPWn-17" vertex="1" connectable="0">
          <mxGeometry x="-0.7806" relative="1" as="geometry">
            <mxPoint x="-10" y="-1" as="offset" />
          </mxGeometry>
        </mxCell>
        <mxCell id="1BdTyNFNl_WO69o5SPWn-19" value="Pin 2" style="text;html=1;align=center;verticalAlign=middle;resizable=0;points=[];autosize=1;strokeColor=#FF3333;fillColor=none;" parent="1" vertex="1">
          <mxGeometry x="630" y="730" width="50" height="30" as="geometry" />
        </mxCell>
        <mxCell id="1BdTyNFNl_WO69o5SPWn-20" value="Gnd" style="text;html=1;align=center;verticalAlign=middle;resizable=0;points=[];autosize=1;strokeColor=#FF3333;fillColor=none;" parent="1" vertex="1">
          <mxGeometry x="724" y="730" width="50" height="30" as="geometry" />
        </mxCell>
        <mxCell id="1BdTyNFNl_WO69o5SPWn-24" value="" style="endArrow=none;html=1;rounded=0;strokeColor=#FF3333;" parent="1" edge="1">
          <mxGeometry width="50" height="50" relative="1" as="geometry">
            <mxPoint x="660" y="730" as="sourcePoint" />
            <mxPoint x="660" y="630" as="targetPoint" />
          </mxGeometry>
        </mxCell>
        <mxCell id="1BdTyNFNl_WO69o5SPWn-27" value="V+&lt;br&gt;" style="edgeLabel;html=1;align=center;verticalAlign=middle;resizable=0;points=[];strokeColor=#FF3333;" parent="1BdTyNFNl_WO69o5SPWn-24" vertex="1" connectable="0">
          <mxGeometry x="0.8863" y="2" relative="1" as="geometry">
            <mxPoint x="-8" y="4" as="offset" />
          </mxGeometry>
        </mxCell>
        <mxCell id="1BdTyNFNl_WO69o5SPWn-25" value="" style="endArrow=none;html=1;rounded=0;exitX=0.446;exitY=0.047;exitDx=0;exitDy=0;exitPerimeter=0;strokeColor=#FF3333;" parent="1" source="1BdTyNFNl_WO69o5SPWn-20" edge="1">
          <mxGeometry width="50" height="50" relative="1" as="geometry">
            <mxPoint x="745" y="730" as="sourcePoint" />
            <mxPoint x="744.77" y="630" as="targetPoint" />
          </mxGeometry>
        </mxCell>
        <mxCell id="1BdTyNFNl_WO69o5SPWn-31" value="V-&lt;br&gt;" style="edgeLabel;html=1;align=center;verticalAlign=middle;resizable=0;points=[];strokeColor=#FF3333;" parent="1BdTyNFNl_WO69o5SPWn-25" vertex="1" connectable="0">
          <mxGeometry x="0.8152" relative="1" as="geometry">
            <mxPoint x="-10" as="offset" />
          </mxGeometry>
        </mxCell>
        <mxCell id="1BdTyNFNl_WO69o5SPWn-37" value="&lt;b&gt;TMAG5273A1_1&lt;/b&gt;" style="rounded=0;whiteSpace=wrap;html=1;rotation=-90;strokeColor=#00FF00;" parent="1" vertex="1">
          <mxGeometry x="51.5" y="637.5" width="120" height="65" as="geometry" />
        </mxCell>
        <mxCell id="1BdTyNFNl_WO69o5SPWn-38" value="" style="endArrow=none;html=1;rounded=0;strokeColor=#00FF00;" parent="1" edge="1">
          <mxGeometry width="50" height="50" relative="1" as="geometry">
            <mxPoint x="144" y="629.39" as="sourcePoint" />
            <mxPoint x="235" y="629" as="targetPoint" />
          </mxGeometry>
        </mxCell>
        <mxCell id="rj669WNodHKwo_dSb1iq-89" value="&lt;font style=&quot;font-size: 9px;&quot;&gt;INT&lt;/font&gt;" style="edgeLabel;html=1;align=center;verticalAlign=middle;resizable=0;points=[];" parent="1BdTyNFNl_WO69o5SPWn-38" vertex="1" connectable="0">
          <mxGeometry x="-0.5888" y="-1" relative="1" as="geometry">
            <mxPoint x="-31" as="offset" />
          </mxGeometry>
        </mxCell>
        <mxCell id="rj669WNodHKwo_dSb1iq-111" value="GPIO_22" style="edgeLabel;html=1;align=center;verticalAlign=middle;resizable=0;points=[];" parent="1BdTyNFNl_WO69o5SPWn-38" vertex="1" connectable="0">
          <mxGeometry x="0.5181" y="-1" relative="1" as="geometry">
            <mxPoint x="48" as="offset" />
          </mxGeometry>
        </mxCell>
        <mxCell id="1BdTyNFNl_WO69o5SPWn-40" value="" style="endArrow=none;html=1;rounded=0;strokeColor=#CC00CC;" parent="1" edge="1">
          <mxGeometry width="50" height="50" relative="1" as="geometry">
            <mxPoint x="145" y="651" as="sourcePoint" />
            <mxPoint x="235" y="651" as="targetPoint" />
          </mxGeometry>
        </mxCell>
        <mxCell id="rj669WNodHKwo_dSb1iq-90" value="&lt;font style=&quot;font-size: 9px;&quot;&gt;SCL&lt;/font&gt;" style="edgeLabel;html=1;align=center;verticalAlign=middle;resizable=0;points=[];" parent="1BdTyNFNl_WO69o5SPWn-40" vertex="1" connectable="0">
          <mxGeometry x="-0.7651" y="-1" relative="1" as="geometry">
            <mxPoint x="-23" as="offset" />
          </mxGeometry>
        </mxCell>
        <mxCell id="1BdTyNFNl_WO69o5SPWn-47" value="" style="endArrow=none;html=1;rounded=0;strokeColor=#00FF00;" parent="1" edge="1">
          <mxGeometry width="50" height="50" relative="1" as="geometry">
            <mxPoint x="39" y="590" as="sourcePoint" />
            <mxPoint x="109" y="590" as="targetPoint" />
          </mxGeometry>
        </mxCell>
        <mxCell id="1BdTyNFNl_WO69o5SPWn-48" value="" style="endArrow=none;html=1;rounded=0;strokeColor=#00FF00;" parent="1" edge="1">
          <mxGeometry width="50" height="50" relative="1" as="geometry">
            <mxPoint x="39" y="650" as="sourcePoint" />
            <mxPoint x="39" y="590" as="targetPoint" />
          </mxGeometry>
        </mxCell>
        <mxCell id="1BdTyNFNl_WO69o5SPWn-49" value="" style="endArrow=none;html=1;rounded=0;strokeColor=#00FF00;" parent="1" edge="1">
          <mxGeometry width="50" height="50" relative="1" as="geometry">
            <mxPoint x="29" y="650" as="sourcePoint" />
            <mxPoint x="49" y="650" as="targetPoint" />
          </mxGeometry>
        </mxCell>
        <mxCell id="1BdTyNFNl_WO69o5SPWn-50" value="" style="endArrow=none;html=1;rounded=0;strokeColor=#00FF00;" parent="1" edge="1">
          <mxGeometry width="50" height="50" relative="1" as="geometry">
            <mxPoint x="29" y="660" as="sourcePoint" />
            <mxPoint x="49" y="660" as="targetPoint" />
          </mxGeometry>
        </mxCell>
        <mxCell id="1BdTyNFNl_WO69o5SPWn-51" value="" style="endArrow=none;html=1;rounded=0;strokeColor=#00FF00;" parent="1" edge="1">
          <mxGeometry width="50" height="50" relative="1" as="geometry">
            <mxPoint x="39" y="740" as="sourcePoint" />
            <mxPoint x="39" y="660" as="targetPoint" />
          </mxGeometry>
        </mxCell>
        <mxCell id="1BdTyNFNl_WO69o5SPWn-52" value="" style="endArrow=none;html=1;rounded=0;strokeColor=#00FF00;" parent="1" edge="1">
          <mxGeometry width="50" height="50" relative="1" as="geometry">
            <mxPoint x="39" y="740" as="sourcePoint" />
            <mxPoint x="109" y="740" as="targetPoint" />
          </mxGeometry>
        </mxCell>
        <mxCell id="1BdTyNFNl_WO69o5SPWn-54" value="" style="endArrow=none;html=1;rounded=0;strokeColor=#FF3333;" parent="1" edge="1">
          <mxGeometry width="50" height="50" relative="1" as="geometry">
            <mxPoint x="109" y="780" as="sourcePoint" />
            <mxPoint x="109" y="730" as="targetPoint" />
          </mxGeometry>
        </mxCell>
        <mxCell id="1BdTyNFNl_WO69o5SPWn-55" value="GND" style="edgeLabel;html=1;align=center;verticalAlign=middle;resizable=0;points=[];strokeColor=#00FF00;" parent="1BdTyNFNl_WO69o5SPWn-54" vertex="1" connectable="0">
          <mxGeometry x="-0.5067" y="-1" relative="1" as="geometry">
            <mxPoint x="-1" y="13" as="offset" />
          </mxGeometry>
        </mxCell>
        <mxCell id="1BdTyNFNl_WO69o5SPWn-56" value="" style="endArrow=none;html=1;rounded=0;strokeColor=#00FF00;" parent="1" edge="1">
          <mxGeometry width="50" height="50" relative="1" as="geometry">
            <mxPoint x="59" y="660" as="sourcePoint" />
            <mxPoint x="79" y="660" as="targetPoint" />
          </mxGeometry>
        </mxCell>
        <mxCell id="1BdTyNFNl_WO69o5SPWn-57" value="Test&lt;br&gt;" style="edgeLabel;html=1;align=center;verticalAlign=middle;resizable=0;points=[];strokeColor=#00FF00;" parent="1BdTyNFNl_WO69o5SPWn-56" vertex="1" connectable="0">
          <mxGeometry x="0.3655" y="-1" relative="1" as="geometry">
            <mxPoint x="-4" y="-11" as="offset" />
          </mxGeometry>
        </mxCell>
        <mxCell id="1BdTyNFNl_WO69o5SPWn-58" value="" style="endArrow=none;html=1;rounded=0;strokeColor=#00FF00;" parent="1" edge="1">
          <mxGeometry width="50" height="50" relative="1" as="geometry">
            <mxPoint x="59" y="740" as="sourcePoint" />
            <mxPoint x="59" y="660" as="targetPoint" />
          </mxGeometry>
        </mxCell>
        <mxCell id="1BdTyNFNl_WO69o5SPWn-59" value="&lt;font style=&quot;font-size: 8px;&quot;&gt;GND&lt;/font&gt;" style="edgeLabel;html=1;align=center;verticalAlign=middle;resizable=0;points=[];strokeColor=#00FF00;" parent="1" vertex="1" connectable="0">
          <mxGeometry x="119.00000000000006" y="701.9971428571426" as="geometry">
            <mxPoint x="3" y="21" as="offset" />
          </mxGeometry>
        </mxCell>
        <mxCell id="1BdTyNFNl_WO69o5SPWn-60" value="&lt;b&gt;TMAG5273A1_2&lt;/b&gt;" style="rounded=0;whiteSpace=wrap;html=1;rotation=-90;strokeColor=#00FF00;" parent="1" vertex="1">
          <mxGeometry x="56.56" y="417.5" width="120" height="65" as="geometry" />
        </mxCell>
        <mxCell id="1BdTyNFNl_WO69o5SPWn-67" value="" style="endArrow=none;html=1;rounded=0;strokeColor=#FF3333;" parent="1" edge="1">
          <mxGeometry width="50" height="50" relative="1" as="geometry">
            <mxPoint x="114.06" y="390" as="sourcePoint" />
            <mxPoint x="114" y="355" as="targetPoint" />
          </mxGeometry>
        </mxCell>
        <mxCell id="1BdTyNFNl_WO69o5SPWn-68" value="&lt;font style=&quot;font-size: 8px;&quot;&gt;VCC&lt;/font&gt;" style="edgeLabel;html=1;align=center;verticalAlign=middle;resizable=0;points=[];strokeColor=#00FF00;" parent="1BdTyNFNl_WO69o5SPWn-67" vertex="1" connectable="0">
          <mxGeometry x="0.0515" y="-1" relative="1" as="geometry">
            <mxPoint x="9" y="25" as="offset" />
          </mxGeometry>
        </mxCell>
        <mxCell id="rj669WNodHKwo_dSb1iq-88" value="Pin_1" style="edgeLabel;html=1;align=center;verticalAlign=middle;resizable=0;points=[];" parent="1BdTyNFNl_WO69o5SPWn-67" vertex="1" connectable="0">
          <mxGeometry x="-0.3059" y="2" relative="1" as="geometry">
            <mxPoint y="-33" as="offset" />
          </mxGeometry>
        </mxCell>
        <mxCell id="1BdTyNFNl_WO69o5SPWn-69" value="" style="endArrow=none;html=1;rounded=0;strokeColor=#00FF00;" parent="1" edge="1">
          <mxGeometry width="50" height="50" relative="1" as="geometry">
            <mxPoint x="44.06" y="370" as="sourcePoint" />
            <mxPoint x="114.06" y="370" as="targetPoint" />
          </mxGeometry>
        </mxCell>
        <mxCell id="1BdTyNFNl_WO69o5SPWn-70" value="" style="endArrow=none;html=1;rounded=0;strokeColor=#00FF00;" parent="1" edge="1">
          <mxGeometry width="50" height="50" relative="1" as="geometry">
            <mxPoint x="44.06" y="430" as="sourcePoint" />
            <mxPoint x="44.06" y="370" as="targetPoint" />
          </mxGeometry>
        </mxCell>
        <mxCell id="1BdTyNFNl_WO69o5SPWn-71" value="" style="endArrow=none;html=1;rounded=0;strokeColor=#00FF00;" parent="1" edge="1">
          <mxGeometry width="50" height="50" relative="1" as="geometry">
            <mxPoint x="34.06" y="430" as="sourcePoint" />
            <mxPoint x="54.06" y="430" as="targetPoint" />
          </mxGeometry>
        </mxCell>
        <mxCell id="1BdTyNFNl_WO69o5SPWn-72" value="" style="endArrow=none;html=1;rounded=0;strokeColor=#00FF00;" parent="1" edge="1">
          <mxGeometry width="50" height="50" relative="1" as="geometry">
            <mxPoint x="34.06" y="440" as="sourcePoint" />
            <mxPoint x="54.06" y="440" as="targetPoint" />
          </mxGeometry>
        </mxCell>
        <mxCell id="1BdTyNFNl_WO69o5SPWn-73" value="" style="endArrow=none;html=1;rounded=0;strokeColor=#00FF00;" parent="1" edge="1">
          <mxGeometry width="50" height="50" relative="1" as="geometry">
            <mxPoint x="44.06" y="520" as="sourcePoint" />
            <mxPoint x="44.06" y="440" as="targetPoint" />
          </mxGeometry>
        </mxCell>
        <mxCell id="1BdTyNFNl_WO69o5SPWn-74" value="" style="endArrow=none;html=1;rounded=0;strokeColor=#00FF00;" parent="1" edge="1">
          <mxGeometry width="50" height="50" relative="1" as="geometry">
            <mxPoint x="44.06" y="520" as="sourcePoint" />
            <mxPoint x="114.06" y="520" as="targetPoint" />
          </mxGeometry>
        </mxCell>
        <mxCell id="1BdTyNFNl_WO69o5SPWn-75" value="" style="endArrow=none;html=1;rounded=0;strokeColor=#FF3333;" parent="1" edge="1">
          <mxGeometry width="50" height="50" relative="1" as="geometry">
            <mxPoint x="114" y="540" as="sourcePoint" />
            <mxPoint x="114" y="510" as="targetPoint" />
          </mxGeometry>
        </mxCell>
        <mxCell id="1BdTyNFNl_WO69o5SPWn-76" value="GND" style="edgeLabel;html=1;align=center;verticalAlign=middle;resizable=0;points=[];strokeColor=#00FF00;" parent="1BdTyNFNl_WO69o5SPWn-75" vertex="1" connectable="0">
          <mxGeometry x="-0.5067" y="-1" relative="1" as="geometry">
            <mxPoint x="-6" y="12" as="offset" />
          </mxGeometry>
        </mxCell>
        <mxCell id="1BdTyNFNl_WO69o5SPWn-77" value="" style="endArrow=none;html=1;rounded=0;strokeColor=#00FF00;" parent="1" edge="1">
          <mxGeometry width="50" height="50" relative="1" as="geometry">
            <mxPoint x="64.06" y="440" as="sourcePoint" />
            <mxPoint x="84.06" y="440" as="targetPoint" />
          </mxGeometry>
        </mxCell>
        <mxCell id="1BdTyNFNl_WO69o5SPWn-78" value="Test&lt;br&gt;" style="edgeLabel;html=1;align=center;verticalAlign=middle;resizable=0;points=[];strokeColor=#00FF00;" parent="1BdTyNFNl_WO69o5SPWn-77" vertex="1" connectable="0">
          <mxGeometry x="0.3655" y="-1" relative="1" as="geometry">
            <mxPoint x="-4" y="-11" as="offset" />
          </mxGeometry>
        </mxCell>
        <mxCell id="1BdTyNFNl_WO69o5SPWn-79" value="" style="endArrow=none;html=1;rounded=0;strokeColor=#00FF00;" parent="1" edge="1">
          <mxGeometry width="50" height="50" relative="1" as="geometry">
            <mxPoint x="64.06" y="520" as="sourcePoint" />
            <mxPoint x="64.06" y="440" as="targetPoint" />
          </mxGeometry>
        </mxCell>
        <mxCell id="MDh1ZHw5oDaE_83z4BID-1" value="Batterie&lt;br&gt;" style="rounded=0;whiteSpace=wrap;html=1;strokeColor=#FF3333;" parent="1" vertex="1">
          <mxGeometry x="520" y="430" width="50" height="60" as="geometry" />
        </mxCell>
        <mxCell id="MDh1ZHw5oDaE_83z4BID-2" value="Pin 2" style="rounded=0;whiteSpace=wrap;html=1;strokeColor=#FF3333;" parent="1" vertex="1">
          <mxGeometry x="30" y="-90" width="40" height="15" as="geometry" />
        </mxCell>
        <mxCell id="MDh1ZHw5oDaE_83z4BID-32" value="Module joystick" style="rounded=0;whiteSpace=wrap;html=1;strokeColor=#3399FF;" parent="1" vertex="1">
          <mxGeometry x="370" y="270" width="120" height="60" as="geometry" />
        </mxCell>
        <mxCell id="aLsk8Gxcpm-io4isB8vR-7" value="" style="endArrow=none;html=1;rounded=0;strokeColor=#FF3333;exitX=1;exitY=0.5;exitDx=0;exitDy=0;" parent="1" source="1BdTyNFNl_WO69o5SPWn-37" edge="1">
          <mxGeometry width="50" height="50" relative="1" as="geometry">
            <mxPoint x="110" y="605" as="sourcePoint" />
            <mxPoint x="110" y="585" as="targetPoint" />
          </mxGeometry>
        </mxCell>
        <mxCell id="aLsk8Gxcpm-io4isB8vR-8" value="&lt;font style=&quot;font-size: 8px;&quot;&gt;VCC&lt;/font&gt;" style="edgeLabel;html=1;align=center;verticalAlign=middle;resizable=0;points=[];strokeColor=#00FF00;" parent="aLsk8Gxcpm-io4isB8vR-7" vertex="1" connectable="0">
          <mxGeometry x="0.0515" y="-1" relative="1" as="geometry">
            <mxPoint x="9" y="22" as="offset" />
          </mxGeometry>
        </mxCell>
        <mxCell id="rj669WNodHKwo_dSb1iq-86" value="Pin_1" style="edgeLabel;html=1;align=center;verticalAlign=middle;resizable=0;points=[];" parent="aLsk8Gxcpm-io4isB8vR-7" vertex="1" connectable="0">
          <mxGeometry x="0.5711" y="-2" relative="1" as="geometry">
            <mxPoint y="-11" as="offset" />
          </mxGeometry>
        </mxCell>
        <mxCell id="aLsk8Gxcpm-io4isB8vR-12" value="" style="endArrow=none;html=1;rounded=0;strokeColor=#FF3333;" parent="1" edge="1">
          <mxGeometry width="50" height="50" relative="1" as="geometry">
            <mxPoint x="104" y="-60" as="sourcePoint" />
            <mxPoint x="104.06" y="-75" as="targetPoint" />
          </mxGeometry>
        </mxCell>
        <mxCell id="aLsk8Gxcpm-io4isB8vR-13" value="Pin 4&lt;br&gt;" style="rounded=0;whiteSpace=wrap;html=1;strokeColor=#FF3333;" parent="1" vertex="1">
          <mxGeometry x="84.06" y="-90" width="40" height="15" as="geometry" />
        </mxCell>
        <mxCell id="rj669WNodHKwo_dSb1iq-2" value="&lt;b&gt;ADS1115&lt;/b&gt;" style="rounded=1;whiteSpace=wrap;html=1;strokeColor=#3399FF;" parent="1" vertex="1">
          <mxGeometry x="452" y="-130" width="170" height="140" as="geometry" />
        </mxCell>
        <mxCell id="rj669WNodHKwo_dSb1iq-3" value="" style="endArrow=none;html=1;rounded=0;strokeColor=#CC00CC;" parent="1" edge="1">
          <mxGeometry width="50" height="50" relative="1" as="geometry">
            <mxPoint x="502" y="-130" as="sourcePoint" />
            <mxPoint x="502" y="-180" as="targetPoint" />
          </mxGeometry>
        </mxCell>
        <mxCell id="rj669WNodHKwo_dSb1iq-4" value="SDA" style="edgeLabel;html=1;align=center;verticalAlign=middle;resizable=0;points=[];strokeColor=#3399FF;" parent="rj669WNodHKwo_dSb1iq-3" vertex="1" connectable="0">
          <mxGeometry x="-0.4" y="-4" relative="1" as="geometry">
            <mxPoint x="-4" y="26" as="offset" />
          </mxGeometry>
        </mxCell>
        <mxCell id="rj669WNodHKwo_dSb1iq-5" value="" style="endArrow=none;html=1;rounded=0;strokeColor=#CC00CC;" parent="1" edge="1">
          <mxGeometry width="50" height="50" relative="1" as="geometry">
            <mxPoint x="562" y="-130" as="sourcePoint" />
            <mxPoint x="562" y="-180" as="targetPoint" />
          </mxGeometry>
        </mxCell>
        <mxCell id="rj669WNodHKwo_dSb1iq-6" value="SCL" style="edgeLabel;html=1;align=center;verticalAlign=middle;resizable=0;points=[];strokeColor=#3399FF;" parent="rj669WNodHKwo_dSb1iq-5" vertex="1" connectable="0">
          <mxGeometry x="-0.4" y="-4" relative="1" as="geometry">
            <mxPoint x="-4" y="26" as="offset" />
          </mxGeometry>
        </mxCell>
        <mxCell id="rj669WNodHKwo_dSb1iq-7" value="" style="endArrow=none;html=1;rounded=0;strokeColor=#3399FF;" parent="1" edge="1">
          <mxGeometry width="50" height="50" relative="1" as="geometry">
            <mxPoint x="622" y="-80" as="sourcePoint" />
            <mxPoint x="722" y="-80" as="targetPoint" />
          </mxGeometry>
        </mxCell>
        <mxCell id="rj669WNodHKwo_dSb1iq-8" value="VDD" style="edgeLabel;html=1;align=center;verticalAlign=middle;resizable=0;points=[];strokeColor=#3399FF;" parent="rj669WNodHKwo_dSb1iq-7" vertex="1" connectable="0">
          <mxGeometry x="-0.7105" y="-2" relative="1" as="geometry">
            <mxPoint x="-34" y="-2" as="offset" />
          </mxGeometry>
        </mxCell>
        <mxCell id="rj669WNodHKwo_dSb1iq-9" value="" style="endArrow=none;html=1;rounded=0;strokeColor=#3399FF;" parent="1" edge="1">
          <mxGeometry width="50" height="50" relative="1" as="geometry">
            <mxPoint x="722" y="-50" as="sourcePoint" />
            <mxPoint x="722" y="-80" as="targetPoint" />
          </mxGeometry>
        </mxCell>
        <mxCell id="rj669WNodHKwo_dSb1iq-10" value="" style="endArrow=none;html=1;rounded=0;strokeColor=#3399FF;" parent="1" edge="1">
          <mxGeometry width="50" height="50" relative="1" as="geometry">
            <mxPoint x="712" y="-50" as="sourcePoint" />
            <mxPoint x="732" y="-50" as="targetPoint" />
          </mxGeometry>
        </mxCell>
        <mxCell id="rj669WNodHKwo_dSb1iq-11" value="" style="endArrow=none;html=1;rounded=0;strokeColor=#3399FF;" parent="1" edge="1">
          <mxGeometry width="50" height="50" relative="1" as="geometry">
            <mxPoint x="712" y="-40" as="sourcePoint" />
            <mxPoint x="732" y="-40" as="targetPoint" />
          </mxGeometry>
        </mxCell>
        <mxCell id="rj669WNodHKwo_dSb1iq-12" value="" style="endArrow=none;html=1;rounded=0;strokeColor=#3399FF;" parent="1" edge="1">
          <mxGeometry width="50" height="50" relative="1" as="geometry">
            <mxPoint x="722" y="-10.000000000000004" as="sourcePoint" />
            <mxPoint x="722" y="-40" as="targetPoint" />
          </mxGeometry>
        </mxCell>
        <mxCell id="rj669WNodHKwo_dSb1iq-13" value="GND" style="text;html=1;align=center;verticalAlign=middle;resizable=0;points=[];autosize=1;strokeColor=#3399FF;fillColor=none;" parent="1" vertex="1">
          <mxGeometry x="697" y="-12.000000000000004" width="50" height="30" as="geometry" />
        </mxCell>
        <mxCell id="rj669WNodHKwo_dSb1iq-14" value="" style="endArrow=none;html=1;rounded=0;strokeColor=#3399FF;" parent="1" edge="1">
          <mxGeometry width="50" height="50" relative="1" as="geometry">
            <mxPoint x="722" y="-80" as="sourcePoint" />
            <mxPoint x="722" y="-130" as="targetPoint" />
          </mxGeometry>
        </mxCell>
        <mxCell id="rj669WNodHKwo_dSb1iq-15" value="VDD" style="text;html=1;align=center;verticalAlign=middle;resizable=0;points=[];autosize=1;strokeColor=#3399FF;fillColor=none;" parent="1" vertex="1">
          <mxGeometry x="697" y="-152" width="50" height="30" as="geometry" />
        </mxCell>
        <mxCell id="rj669WNodHKwo_dSb1iq-16" value="0.1 uF" style="text;html=1;align=center;verticalAlign=middle;resizable=0;points=[];autosize=1;strokeColor=#3399FF;fillColor=none;" parent="1" vertex="1">
          <mxGeometry x="741" y="-60" width="60" height="30" as="geometry" />
        </mxCell>
        <mxCell id="rj669WNodHKwo_dSb1iq-17" value="" style="endArrow=none;html=1;rounded=0;exitX=0.5;exitY=0;exitDx=0;exitDy=0;strokeColor=#3399FF;" parent="1" source="rj669WNodHKwo_dSb1iq-25" edge="1">
          <mxGeometry width="50" height="50" relative="1" as="geometry">
            <mxPoint x="602" y="50" as="sourcePoint" />
            <mxPoint x="602" y="9.999999999999996" as="targetPoint" />
          </mxGeometry>
        </mxCell>
        <mxCell id="rj669WNodHKwo_dSb1iq-18" value="Ain3&lt;br&gt;" style="edgeLabel;html=1;align=center;verticalAlign=middle;resizable=0;points=[];strokeColor=#3399FF;" parent="rj669WNodHKwo_dSb1iq-17" vertex="1" connectable="0">
          <mxGeometry x="0.3286" y="1" relative="1" as="geometry">
            <mxPoint y="-40" as="offset" />
          </mxGeometry>
        </mxCell>
        <mxCell id="rj669WNodHKwo_dSb1iq-43" value="VrY&lt;br&gt;" style="edgeLabel;html=1;align=center;verticalAlign=middle;resizable=0;points=[];strokeColor=#3399FF;" parent="rj669WNodHKwo_dSb1iq-17" vertex="1" connectable="0">
          <mxGeometry x="-0.7572" relative="1" as="geometry">
            <mxPoint x="10" as="offset" />
          </mxGeometry>
        </mxCell>
        <mxCell id="rj669WNodHKwo_dSb1iq-19" value="" style="endArrow=none;html=1;rounded=0;exitX=0.124;exitY=-0.011;exitDx=0;exitDy=0;exitPerimeter=0;strokeColor=#3399FF;" parent="1" source="rj669WNodHKwo_dSb1iq-25" edge="1">
          <mxGeometry width="50" height="50" relative="1" as="geometry">
            <mxPoint x="572" y="50" as="sourcePoint" />
            <mxPoint x="572" y="9.999999999999996" as="targetPoint" />
          </mxGeometry>
        </mxCell>
        <mxCell id="rj669WNodHKwo_dSb1iq-20" value="Ain 2" style="edgeLabel;html=1;align=center;verticalAlign=middle;resizable=0;points=[];strokeColor=#3399FF;" parent="rj669WNodHKwo_dSb1iq-19" vertex="1" connectable="0">
          <mxGeometry x="0.3286" y="1" relative="1" as="geometry">
            <mxPoint y="-40" as="offset" />
          </mxGeometry>
        </mxCell>
        <mxCell id="rj669WNodHKwo_dSb1iq-42" value="VrX&lt;br&gt;" style="edgeLabel;html=1;align=center;verticalAlign=middle;resizable=0;points=[];strokeColor=#3399FF;" parent="rj669WNodHKwo_dSb1iq-19" vertex="1" connectable="0">
          <mxGeometry x="-0.793" y="3" relative="1" as="geometry">
            <mxPoint x="-7" as="offset" />
          </mxGeometry>
        </mxCell>
        <mxCell id="rj669WNodHKwo_dSb1iq-21" value="" style="endArrow=none;html=1;rounded=0;exitX=0.664;exitY=-0.011;exitDx=0;exitDy=0;exitPerimeter=0;strokeColor=#3399FF;" parent="1" source="rj669WNodHKwo_dSb1iq-26" edge="1">
          <mxGeometry width="50" height="50" relative="1" as="geometry">
            <mxPoint x="500.94000000000005" y="79.0499999999999" as="sourcePoint" />
            <mxPoint x="502" y="9.049999999999994" as="targetPoint" />
          </mxGeometry>
        </mxCell>
        <mxCell id="rj669WNodHKwo_dSb1iq-22" value="Ain 1" style="edgeLabel;html=1;align=center;verticalAlign=middle;resizable=0;points=[];strokeColor=#3399FF;" parent="rj669WNodHKwo_dSb1iq-21" vertex="1" connectable="0">
          <mxGeometry x="0.3286" y="1" relative="1" as="geometry">
            <mxPoint y="-39" as="offset" />
          </mxGeometry>
        </mxCell>
        <mxCell id="rj669WNodHKwo_dSb1iq-41" value="VrY" style="edgeLabel;html=1;align=center;verticalAlign=middle;resizable=0;points=[];strokeColor=#3399FF;" parent="rj669WNodHKwo_dSb1iq-21" vertex="1" connectable="0">
          <mxGeometry x="-0.7952" y="1" relative="1" as="geometry">
            <mxPoint x="11" as="offset" />
          </mxGeometry>
        </mxCell>
        <mxCell id="rj669WNodHKwo_dSb1iq-23" value="" style="endArrow=none;html=1;rounded=0;exitX=0.333;exitY=0.016;exitDx=0;exitDy=0;exitPerimeter=0;strokeColor=#3399FF;" parent="1" source="rj669WNodHKwo_dSb1iq-26" edge="1">
          <mxGeometry width="50" height="50" relative="1" as="geometry">
            <mxPoint x="472" y="49.05000000000001" as="sourcePoint" />
            <mxPoint x="472" y="9.049999999999994" as="targetPoint" />
          </mxGeometry>
        </mxCell>
        <mxCell id="rj669WNodHKwo_dSb1iq-24" value="Ain 0" style="edgeLabel;html=1;align=center;verticalAlign=middle;resizable=0;points=[];strokeColor=#3399FF;" parent="rj669WNodHKwo_dSb1iq-23" vertex="1" connectable="0">
          <mxGeometry x="0.3286" y="1" relative="1" as="geometry">
            <mxPoint x="2" y="-41" as="offset" />
          </mxGeometry>
        </mxCell>
        <mxCell id="rj669WNodHKwo_dSb1iq-40" value="VrX" style="edgeLabel;html=1;align=center;verticalAlign=middle;resizable=0;points=[];strokeColor=#3399FF;" parent="rj669WNodHKwo_dSb1iq-23" vertex="1" connectable="0">
          <mxGeometry x="-0.4371" y="-2" relative="1" as="geometry">
            <mxPoint x="-12" y="15" as="offset" />
          </mxGeometry>
        </mxCell>
        <mxCell id="rj669WNodHKwo_dSb1iq-25" value="Joystick2&lt;br&gt;" style="rounded=0;whiteSpace=wrap;html=1;strokeColor=#99CCFF;" parent="1" vertex="1">
          <mxGeometry x="562" y="99.05000000000001" width="80" height="80" as="geometry" />
        </mxCell>
        <mxCell id="rj669WNodHKwo_dSb1iq-26" value="Joystick1" style="rounded=0;whiteSpace=wrap;html=1;strokeColor=#99CCFF;" parent="1" vertex="1">
          <mxGeometry x="442" y="99.05000000000001" width="90" height="80" as="geometry" />
        </mxCell>
        <mxCell id="rj669WNodHKwo_dSb1iq-27" value="" style="endArrow=none;html=1;rounded=0;" parent="1" edge="1">
          <mxGeometry width="50" height="50" relative="1" as="geometry">
            <mxPoint x="565" y="179.05" as="sourcePoint" />
            <mxPoint x="565" y="179.05" as="targetPoint" />
          </mxGeometry>
        </mxCell>
        <mxCell id="rj669WNodHKwo_dSb1iq-44" value="" style="endArrow=none;html=1;rounded=0;strokeColor=#FF3333;" parent="1" edge="1">
          <mxGeometry width="50" height="50" relative="1" as="geometry">
            <mxPoint x="522" y="200" as="sourcePoint" />
            <mxPoint x="522" y="180" as="targetPoint" />
          </mxGeometry>
        </mxCell>
        <mxCell id="rj669WNodHKwo_dSb1iq-49" value="5V" style="edgeLabel;html=1;align=center;verticalAlign=middle;resizable=0;points=[];" parent="rj669WNodHKwo_dSb1iq-44" vertex="1" connectable="0">
          <mxGeometry x="0.5143" y="3" relative="1" as="geometry">
            <mxPoint x="3" y="-15" as="offset" />
          </mxGeometry>
        </mxCell>
        <mxCell id="rj669WNodHKwo_dSb1iq-45" value="" style="endArrow=none;html=1;rounded=0;strokeColor=#FF3333;" parent="1" edge="1">
          <mxGeometry width="50" height="50" relative="1" as="geometry">
            <mxPoint x="522" y="200" as="sourcePoint" />
            <mxPoint x="742" y="200" as="targetPoint" />
          </mxGeometry>
        </mxCell>
        <mxCell id="rj669WNodHKwo_dSb1iq-46" value="" style="endArrow=none;html=1;rounded=0;strokeColor=#FF3333;" parent="1" edge="1">
          <mxGeometry width="50" height="50" relative="1" as="geometry">
            <mxPoint x="562" y="199.05" as="sourcePoint" />
            <mxPoint x="562" y="179.05" as="targetPoint" />
          </mxGeometry>
        </mxCell>
        <mxCell id="rj669WNodHKwo_dSb1iq-48" value="5V" style="edgeLabel;html=1;align=center;verticalAlign=middle;resizable=0;points=[];" parent="rj669WNodHKwo_dSb1iq-46" vertex="1" connectable="0">
          <mxGeometry x="0.705" y="-1" relative="1" as="geometry">
            <mxPoint x="8" y="-12" as="offset" />
          </mxGeometry>
        </mxCell>
        <mxCell id="rj669WNodHKwo_dSb1iq-47" value="Pin 4" style="text;html=1;align=center;verticalAlign=middle;resizable=0;points=[];autosize=1;strokeColor=#FF3333;fillColor=none;" parent="1" vertex="1">
          <mxGeometry x="742" y="179.05" width="50" height="30" as="geometry" />
        </mxCell>
        <mxCell id="rj669WNodHKwo_dSb1iq-50" value="" style="endArrow=none;html=1;rounded=0;strokeColor=#3399FF;" parent="1" edge="1">
          <mxGeometry width="50" height="50" relative="1" as="geometry">
            <mxPoint x="622" y="-20.69" as="sourcePoint" />
            <mxPoint x="672" y="-21.000000000000004" as="targetPoint" />
          </mxGeometry>
        </mxCell>
        <mxCell id="rj669WNodHKwo_dSb1iq-51" value="GND" style="edgeLabel;html=1;align=center;verticalAlign=middle;resizable=0;points=[];strokeColor=#3399FF;" parent="rj669WNodHKwo_dSb1iq-50" vertex="1" connectable="0">
          <mxGeometry x="-0.7105" y="-2" relative="1" as="geometry">
            <mxPoint x="-34" y="-2" as="offset" />
          </mxGeometry>
        </mxCell>
        <mxCell id="rj669WNodHKwo_dSb1iq-54" value="" style="endArrow=none;html=1;rounded=0;strokeColor=#3399FF;" parent="1" edge="1">
          <mxGeometry width="50" height="50" relative="1" as="geometry">
            <mxPoint x="672" y="-3.552713678800501e-15" as="sourcePoint" />
            <mxPoint x="672" y="-21.000000000000004" as="targetPoint" />
          </mxGeometry>
        </mxCell>
        <mxCell id="rj669WNodHKwo_dSb1iq-55" value="" style="endArrow=none;html=1;rounded=0;entryX=0.007;entryY=0.4;entryDx=0;entryDy=0;entryPerimeter=0;strokeColor=#3399FF;" parent="1" target="rj669WNodHKwo_dSb1iq-13" edge="1">
          <mxGeometry width="50" height="50" relative="1" as="geometry">
            <mxPoint x="672" y="-3.552713678800501e-15" as="sourcePoint" />
            <mxPoint x="722" y="-50" as="targetPoint" />
          </mxGeometry>
        </mxCell>
        <mxCell id="rj669WNodHKwo_dSb1iq-59" value="" style="endArrow=none;html=1;rounded=0;strokeColor=#FF3333;" parent="1" edge="1">
          <mxGeometry width="50" height="50" relative="1" as="geometry">
            <mxPoint x="502" y="220" as="sourcePoint" />
            <mxPoint x="502" y="180" as="targetPoint" />
          </mxGeometry>
        </mxCell>
        <mxCell id="rj669WNodHKwo_dSb1iq-60" value="" style="endArrow=none;html=1;rounded=0;strokeColor=#FF3333;" parent="1" edge="1">
          <mxGeometry width="50" height="50" relative="1" as="geometry">
            <mxPoint x="502" y="220" as="sourcePoint" />
            <mxPoint x="830" y="220" as="targetPoint" />
          </mxGeometry>
        </mxCell>
        <mxCell id="rj669WNodHKwo_dSb1iq-61" value="" style="endArrow=none;html=1;rounded=0;strokeColor=#FF3333;entryX=0.308;entryY=0;entryDx=0;entryDy=0;entryPerimeter=0;" parent="1" target="rj669WNodHKwo_dSb1iq-63" edge="1">
          <mxGeometry width="50" height="50" relative="1" as="geometry">
            <mxPoint x="642" y="150" as="sourcePoint" />
            <mxPoint x="802" y="150" as="targetPoint" />
          </mxGeometry>
        </mxCell>
        <mxCell id="rj669WNodHKwo_dSb1iq-63" value="GND" style="text;html=1;align=center;verticalAlign=middle;resizable=0;points=[];autosize=1;strokeColor=#FF3333;fillColor=none;" parent="1" vertex="1">
          <mxGeometry x="801" y="149.05" width="50" height="30" as="geometry" />
        </mxCell>
        <mxCell id="rj669WNodHKwo_dSb1iq-64" value="" style="endArrow=none;html=1;rounded=0;strokeColor=#3399FF;" parent="1" edge="1">
          <mxGeometry width="50" height="50" relative="1" as="geometry">
            <mxPoint x="402" y="-80" as="sourcePoint" />
            <mxPoint x="452" y="-80" as="targetPoint" />
          </mxGeometry>
        </mxCell>
        <mxCell id="rj669WNodHKwo_dSb1iq-65" value="ADDR" style="edgeLabel;html=1;align=center;verticalAlign=middle;resizable=0;points=[];strokeColor=#3399FF;" parent="rj669WNodHKwo_dSb1iq-64" vertex="1" connectable="0">
          <mxGeometry x="0.376" y="-3" relative="1" as="geometry">
            <mxPoint x="36" y="-3" as="offset" />
          </mxGeometry>
        </mxCell>
        <mxCell id="rj669WNodHKwo_dSb1iq-66" value="" style="endArrow=none;html=1;rounded=0;strokeColor=#3399FF;" parent="1" edge="1">
          <mxGeometry width="50" height="50" relative="1" as="geometry">
            <mxPoint x="402" y="-45.25" as="sourcePoint" />
            <mxPoint x="452" y="-45.25" as="targetPoint" />
          </mxGeometry>
        </mxCell>
        <mxCell id="rj669WNodHKwo_dSb1iq-67" value="ALERT/RDY" style="edgeLabel;html=1;align=center;verticalAlign=middle;resizable=0;points=[];strokeColor=#3399FF;" parent="rj669WNodHKwo_dSb1iq-66" vertex="1" connectable="0">
          <mxGeometry x="0.376" y="-3" relative="1" as="geometry">
            <mxPoint x="48" y="3" as="offset" />
          </mxGeometry>
        </mxCell>
        <mxCell id="rj669WNodHKwo_dSb1iq-68" value="GPIO17" style="text;html=1;align=center;verticalAlign=middle;resizable=0;points=[];autosize=1;strokeColor=#3399FF;fillColor=none;" parent="1" vertex="1">
          <mxGeometry x="332" y="-97.5" width="70" height="30" as="geometry" />
        </mxCell>
        <mxCell id="rj669WNodHKwo_dSb1iq-69" value="GND" style="text;html=1;align=center;verticalAlign=middle;resizable=0;points=[];autosize=1;strokeColor=#3399FF;fillColor=none;" parent="1" vertex="1">
          <mxGeometry x="352" y="-60" width="50" height="30" as="geometry" />
        </mxCell>
        <mxCell id="rj669WNodHKwo_dSb1iq-73" value="" style="endArrow=none;html=1;rounded=0;strokeColor=#FF3333;" parent="1" edge="1">
          <mxGeometry width="50" height="50" relative="1" as="geometry">
            <mxPoint x="830" y="220" as="sourcePoint" />
            <mxPoint x="830" y="180" as="targetPoint" />
          </mxGeometry>
        </mxCell>
        <mxCell id="rj669WNodHKwo_dSb1iq-80" value="" style="endArrow=none;html=1;rounded=0;strokeColor=#CC00CC;" parent="1" edge="1">
          <mxGeometry width="50" height="50" relative="1" as="geometry">
            <mxPoint x="145" y="665" as="sourcePoint" />
            <mxPoint x="235" y="665" as="targetPoint" />
          </mxGeometry>
        </mxCell>
        <mxCell id="rj669WNodHKwo_dSb1iq-91" value="&lt;font style=&quot;font-size: 9px;&quot;&gt;SDA&lt;/font&gt;" style="edgeLabel;html=1;align=center;verticalAlign=middle;resizable=0;points=[];" parent="rj669WNodHKwo_dSb1iq-80" vertex="1" connectable="0">
          <mxGeometry x="-0.4952" y="-1" relative="1" as="geometry">
            <mxPoint x="-37" y="-1" as="offset" />
          </mxGeometry>
        </mxCell>
        <mxCell id="rj669WNodHKwo_dSb1iq-92" value="" style="endArrow=none;html=1;rounded=0;strokeColor=#00FF00;" parent="1" edge="1">
          <mxGeometry width="50" height="50" relative="1" as="geometry">
            <mxPoint x="150" y="417.89" as="sourcePoint" />
            <mxPoint x="241" y="417.5" as="targetPoint" />
          </mxGeometry>
        </mxCell>
        <mxCell id="rj669WNodHKwo_dSb1iq-93" value="&lt;font style=&quot;font-size: 9px;&quot;&gt;INT&lt;/font&gt;" style="edgeLabel;html=1;align=center;verticalAlign=middle;resizable=0;points=[];" parent="rj669WNodHKwo_dSb1iq-92" vertex="1" connectable="0">
          <mxGeometry x="-0.5888" y="-1" relative="1" as="geometry">
            <mxPoint x="-31" as="offset" />
          </mxGeometry>
        </mxCell>
        <mxCell id="rj669WNodHKwo_dSb1iq-110" value="GPIO_27" style="edgeLabel;html=1;align=center;verticalAlign=middle;resizable=0;points=[];" parent="rj669WNodHKwo_dSb1iq-92" vertex="1" connectable="0">
          <mxGeometry x="0.2385" y="-2" relative="1" as="geometry">
            <mxPoint x="48" y="-4" as="offset" />
          </mxGeometry>
        </mxCell>
        <mxCell id="rj669WNodHKwo_dSb1iq-94" value="" style="endArrow=none;html=1;rounded=0;strokeColor=#CC00CC;" parent="1" edge="1">
          <mxGeometry width="50" height="50" relative="1" as="geometry">
            <mxPoint x="151" y="439.5" as="sourcePoint" />
            <mxPoint x="241" y="439.5" as="targetPoint" />
          </mxGeometry>
        </mxCell>
        <mxCell id="rj669WNodHKwo_dSb1iq-95" value="&lt;font style=&quot;font-size: 9px;&quot;&gt;SCL&lt;/font&gt;" style="edgeLabel;html=1;align=center;verticalAlign=middle;resizable=0;points=[];" parent="rj669WNodHKwo_dSb1iq-94" vertex="1" connectable="0">
          <mxGeometry x="-0.7651" y="-1" relative="1" as="geometry">
            <mxPoint x="-23" as="offset" />
          </mxGeometry>
        </mxCell>
        <mxCell id="rj669WNodHKwo_dSb1iq-96" value="" style="endArrow=none;html=1;rounded=0;strokeColor=#CC00CC;" parent="1" edge="1">
          <mxGeometry width="50" height="50" relative="1" as="geometry">
            <mxPoint x="151" y="453.5" as="sourcePoint" />
            <mxPoint x="241" y="453.5" as="targetPoint" />
          </mxGeometry>
        </mxCell>
        <mxCell id="rj669WNodHKwo_dSb1iq-97" value="&lt;font style=&quot;font-size: 9px;&quot;&gt;SDA&lt;/font&gt;" style="edgeLabel;html=1;align=center;verticalAlign=middle;resizable=0;points=[];" parent="rj669WNodHKwo_dSb1iq-96" vertex="1" connectable="0">
          <mxGeometry x="-0.4952" y="-1" relative="1" as="geometry">
            <mxPoint x="-37" y="-1" as="offset" />
          </mxGeometry>
        </mxCell>
        <mxCell id="rj669WNodHKwo_dSb1iq-98" value="" style="swimlane;startSize=0;strokeColor=#00FF00;" parent="1" vertex="1">
          <mxGeometry x="-10" y="315" width="330" height="540" as="geometry" />
        </mxCell>
        <mxCell id="rj669WNodHKwo_dSb1iq-99" value="Module Trigger" style="rounded=0;whiteSpace=wrap;html=1;strokeColor=#00FF00;" parent="rj669WNodHKwo_dSb1iq-98" vertex="1">
          <mxGeometry x="9" y="510" width="81" height="30" as="geometry" />
        </mxCell>
        <mxCell id="1BdTyNFNl_WO69o5SPWn-80" value="&lt;font style=&quot;font-size: 8px;&quot;&gt;GND&lt;/font&gt;" style="edgeLabel;html=1;align=center;verticalAlign=middle;resizable=0;points=[];strokeColor=#00FF00;" parent="rj669WNodHKwo_dSb1iq-98" vertex="1" connectable="0">
          <mxGeometry x="134.06000000000006" y="165.49714285714265" as="geometry">
            <mxPoint x="3" y="21" as="offset" />
          </mxGeometry>
        </mxCell>
        <mxCell id="rj669WNodHKwo_dSb1iq-100" value="" style="swimlane;startSize=0;strokeColor=#FF3333;" parent="1" vertex="1">
          <mxGeometry x="470" y="335" width="410" height="455" as="geometry" />
        </mxCell>
        <mxCell id="rj669WNodHKwo_dSb1iq-101" value="Module d&#39;alimentation" style="rounded=0;whiteSpace=wrap;html=1;strokeColor=#FF3333;" parent="rj669WNodHKwo_dSb1iq-100" vertex="1">
          <mxGeometry y="395" width="120" height="60" as="geometry" />
        </mxCell>
        <mxCell id="1BdTyNFNl_WO69o5SPWn-21" value="MT3608&lt;br&gt;" style="rounded=0;whiteSpace=wrap;html=1;strokeColor=#FF3333;" parent="rj669WNodHKwo_dSb1iq-100" vertex="1">
          <mxGeometry x="160" y="235" width="120" height="60" as="geometry" />
        </mxCell>
        <mxCell id="rj669WNodHKwo_dSb1iq-102" value="" style="endArrow=none;html=1;rounded=0;strokeColor=#00FF00;" parent="1" edge="1">
          <mxGeometry width="50" height="50" relative="1" as="geometry">
            <mxPoint x="160" y="150" as="sourcePoint" />
            <mxPoint x="240" y="150" as="targetPoint" />
          </mxGeometry>
        </mxCell>
        <mxCell id="rj669WNodHKwo_dSb1iq-103" value="GPIO_27" style="edgeLabel;html=1;align=center;verticalAlign=middle;resizable=0;points=[];" parent="rj669WNodHKwo_dSb1iq-102" vertex="1" connectable="0">
          <mxGeometry x="-0.5309" y="-3" relative="1" as="geometry">
            <mxPoint x="-49" y="-4" as="offset" />
          </mxGeometry>
        </mxCell>
        <mxCell id="rj669WNodHKwo_dSb1iq-104" value="" style="endArrow=none;html=1;rounded=0;strokeColor=#00FF00;" parent="1" edge="1">
          <mxGeometry width="50" height="50" relative="1" as="geometry">
            <mxPoint x="159.06" y="177.87" as="sourcePoint" />
            <mxPoint x="239.06" y="177.87" as="targetPoint" />
          </mxGeometry>
        </mxCell>
        <mxCell id="rj669WNodHKwo_dSb1iq-105" value="GPIO_22&lt;br&gt;" style="edgeLabel;html=1;align=center;verticalAlign=middle;resizable=0;points=[];" parent="rj669WNodHKwo_dSb1iq-104" vertex="1" connectable="0">
          <mxGeometry x="-0.5309" y="-3" relative="1" as="geometry">
            <mxPoint x="-49" y="-4" as="offset" />
          </mxGeometry>
        </mxCell>
        <mxCell id="rj669WNodHKwo_dSb1iq-106" value="INT_1" style="text;html=1;align=center;verticalAlign=middle;resizable=0;points=[];autosize=1;strokeColor=#00FF00;fillColor=none;" parent="1" vertex="1">
          <mxGeometry x="240" y="168" width="60" height="30" as="geometry" />
        </mxCell>
        <mxCell id="rj669WNodHKwo_dSb1iq-107" value="INT_2" style="text;html=1;align=center;verticalAlign=middle;resizable=0;points=[];autosize=1;strokeColor=#00FF00;fillColor=none;" parent="1" vertex="1">
          <mxGeometry x="240" y="137" width="60" height="30" as="geometry" />
        </mxCell>
        <mxCell id="5sd_egG3gLHyd0d9Nhyc-2" value="" style="swimlane;startSize=0;strokeColor=#3399FF;" parent="1" vertex="1">
          <mxGeometry x="320" y="-200" width="580" height="470" as="geometry" />
        </mxCell>
      </root>
    </mxGraphModel>
  </diagram>
  <diagram id="zBMdzIXDXBCh-LTsvIxF" name="Version 2">
    <mxGraphModel dx="2732" dy="2702" grid="1" gridSize="10" guides="1" tooltips="1" connect="1" arrows="1" fold="1" page="1" pageScale="1" pageWidth="827" pageHeight="1169" math="0" shadow="0">
      <root>
        <mxCell id="0" />
        <mxCell id="1" parent="0" />
        <mxCell id="ExKyeE7MDLRv1U1W7YxB-1" value="Raspberry pi 0 2W" style="whiteSpace=wrap;html=1;aspect=fixed;strokeColor=#000000;" vertex="1" parent="1">
          <mxGeometry x="-110" y="-59.53" width="269.06" height="269.06" as="geometry" />
        </mxCell>
        <mxCell id="ExKyeE7MDLRv1U1W7YxB-2" value="" style="endArrow=none;html=1;rounded=0;exitX=0.996;exitY=0.411;exitDx=0;exitDy=0;exitPerimeter=0;strokeColor=#CC00CC;" edge="1" parent="1" source="ExKyeE7MDLRv1U1W7YxB-1">
          <mxGeometry width="50" height="50" relative="1" as="geometry">
            <mxPoint x="170" y="50" as="sourcePoint" />
            <mxPoint x="300" y="50" as="targetPoint" />
          </mxGeometry>
        </mxCell>
        <mxCell id="ExKyeE7MDLRv1U1W7YxB-3" value="GPIO_3" style="edgeLabel;html=1;align=center;verticalAlign=middle;resizable=0;points=[];" vertex="1" connectable="0" parent="ExKyeE7MDLRv1U1W7YxB-2">
          <mxGeometry x="-0.6806" y="4" relative="1" as="geometry">
            <mxPoint x="-43" as="offset" />
          </mxGeometry>
        </mxCell>
        <mxCell id="ExKyeE7MDLRv1U1W7YxB-4" value="SCL&lt;br&gt;" style="text;html=1;align=center;verticalAlign=middle;resizable=0;points=[];autosize=1;strokeColor=none;fillColor=none;" vertex="1" parent="1">
          <mxGeometry x="230" y="20" width="50" height="30" as="geometry" />
        </mxCell>
        <mxCell id="ExKyeE7MDLRv1U1W7YxB-5" value="SDA" style="text;html=1;align=center;verticalAlign=middle;resizable=0;points=[];autosize=1;strokeColor=none;fillColor=none;" vertex="1" parent="1">
          <mxGeometry x="230" y="69.05" width="50" height="30" as="geometry" />
        </mxCell>
        <mxCell id="ExKyeE7MDLRv1U1W7YxB-6" value="" style="endArrow=none;html=1;rounded=0;strokeColor=#CC00CC;" edge="1" parent="1">
          <mxGeometry width="50" height="50" relative="1" as="geometry">
            <mxPoint x="159.05999999999995" y="90.00182669619204" as="sourcePoint" />
            <mxPoint x="300" y="90" as="targetPoint" />
          </mxGeometry>
        </mxCell>
        <mxCell id="ExKyeE7MDLRv1U1W7YxB-7" value="GPIO_2" style="edgeLabel;html=1;align=center;verticalAlign=middle;resizable=0;points=[];" vertex="1" connectable="0" parent="ExKyeE7MDLRv1U1W7YxB-6">
          <mxGeometry x="-0.6716" y="3" relative="1" as="geometry">
            <mxPoint x="-52" y="-3" as="offset" />
          </mxGeometry>
        </mxCell>
        <mxCell id="ExKyeE7MDLRv1U1W7YxB-8" value="" style="endArrow=none;html=1;rounded=0;strokeColor=#FF3333;" edge="1" parent="1">
          <mxGeometry width="50" height="50" relative="1" as="geometry">
            <mxPoint x="50" y="-60" as="sourcePoint" />
            <mxPoint x="50" y="-75" as="targetPoint" />
          </mxGeometry>
        </mxCell>
        <mxCell id="ExKyeE7MDLRv1U1W7YxB-143" value="5 V-In" style="edgeLabel;html=1;align=center;verticalAlign=middle;resizable=0;points=[];" vertex="1" connectable="0" parent="ExKyeE7MDLRv1U1W7YxB-8">
          <mxGeometry x="-0.4963" relative="1" as="geometry">
            <mxPoint y="14" as="offset" />
          </mxGeometry>
        </mxCell>
        <mxCell id="ExKyeE7MDLRv1U1W7YxB-9" value="TP4056" style="rounded=0;whiteSpace=wrap;html=1;strokeColor=#FF3333;" vertex="1" parent="1">
          <mxGeometry x="620" y="430" width="120" height="60" as="geometry" />
        </mxCell>
        <mxCell id="ExKyeE7MDLRv1U1W7YxB-10" value="" style="endArrow=none;html=1;rounded=0;strokeColor=#FF3333;" edge="1" parent="1">
          <mxGeometry width="50" height="50" relative="1" as="geometry">
            <mxPoint x="680" y="430" as="sourcePoint" />
            <mxPoint x="680" y="360" as="targetPoint" />
          </mxGeometry>
        </mxCell>
        <mxCell id="ExKyeE7MDLRv1U1W7YxB-11" value="USB C&lt;br&gt;" style="edgeLabel;html=1;align=center;verticalAlign=middle;resizable=0;points=[];strokeColor=#FF3333;" vertex="1" connectable="0" parent="ExKyeE7MDLRv1U1W7YxB-10">
          <mxGeometry x="0.395" y="-1" relative="1" as="geometry">
            <mxPoint x="-1" y="-31" as="offset" />
          </mxGeometry>
        </mxCell>
        <mxCell id="ExKyeE7MDLRv1U1W7YxB-12" value="" style="endArrow=none;html=1;rounded=0;strokeColor=#FF3333;" edge="1" parent="1">
          <mxGeometry width="50" height="50" relative="1" as="geometry">
            <mxPoint x="570" y="440" as="sourcePoint" />
            <mxPoint x="620" y="440" as="targetPoint" />
          </mxGeometry>
        </mxCell>
        <mxCell id="ExKyeE7MDLRv1U1W7YxB-13" value="B -&lt;br&gt;" style="edgeLabel;html=1;align=center;verticalAlign=middle;resizable=0;points=[];strokeColor=#FF3333;" vertex="1" connectable="0" parent="ExKyeE7MDLRv1U1W7YxB-12">
          <mxGeometry x="-0.4514" y="2" relative="1" as="geometry">
            <mxPoint x="26" y="-8" as="offset" />
          </mxGeometry>
        </mxCell>
        <mxCell id="ExKyeE7MDLRv1U1W7YxB-14" value="" style="endArrow=none;html=1;rounded=0;strokeColor=#FF3333;" edge="1" parent="1">
          <mxGeometry width="50" height="50" relative="1" as="geometry">
            <mxPoint x="570" y="480" as="sourcePoint" />
            <mxPoint x="620" y="480" as="targetPoint" />
          </mxGeometry>
        </mxCell>
        <mxCell id="ExKyeE7MDLRv1U1W7YxB-15" value="B+&lt;br&gt;" style="edgeLabel;html=1;align=center;verticalAlign=middle;resizable=0;points=[];strokeColor=#FF3333;" vertex="1" connectable="0" parent="ExKyeE7MDLRv1U1W7YxB-14">
          <mxGeometry x="-0.5835" y="-3" relative="1" as="geometry">
            <mxPoint x="29" y="7" as="offset" />
          </mxGeometry>
        </mxCell>
        <mxCell id="ExKyeE7MDLRv1U1W7YxB-16" value="" style="endArrow=none;html=1;rounded=0;exitX=0.25;exitY=0;exitDx=0;exitDy=0;strokeColor=#FF3333;" edge="1" parent="1" source="ExKyeE7MDLRv1U1W7YxB-134">
          <mxGeometry width="50" height="50" relative="1" as="geometry">
            <mxPoint x="659" y="540" as="sourcePoint" />
            <mxPoint x="659" y="490" as="targetPoint" />
          </mxGeometry>
        </mxCell>
        <mxCell id="ExKyeE7MDLRv1U1W7YxB-17" value="OUT +" style="edgeLabel;html=1;align=center;verticalAlign=middle;resizable=0;points=[];strokeColor=#FF3333;" vertex="1" connectable="0" parent="ExKyeE7MDLRv1U1W7YxB-16">
          <mxGeometry x="0.616" relative="1" as="geometry">
            <mxPoint as="offset" />
          </mxGeometry>
        </mxCell>
        <mxCell id="ExKyeE7MDLRv1U1W7YxB-18" value="Vin" style="edgeLabel;html=1;align=center;verticalAlign=middle;resizable=0;points=[];" vertex="1" connectable="0" parent="ExKyeE7MDLRv1U1W7YxB-16">
          <mxGeometry x="-0.6422" y="-2" relative="1" as="geometry">
            <mxPoint x="-12" as="offset" />
          </mxGeometry>
        </mxCell>
        <mxCell id="ExKyeE7MDLRv1U1W7YxB-19" value="" style="endArrow=none;html=1;rounded=0;exitX=0.75;exitY=0;exitDx=0;exitDy=0;strokeColor=#FF3333;" edge="1" parent="1" source="ExKyeE7MDLRv1U1W7YxB-134">
          <mxGeometry width="50" height="50" relative="1" as="geometry">
            <mxPoint x="720" y="540" as="sourcePoint" />
            <mxPoint x="720" y="490" as="targetPoint" />
          </mxGeometry>
        </mxCell>
        <mxCell id="ExKyeE7MDLRv1U1W7YxB-20" value="OUT -" style="edgeLabel;html=1;align=center;verticalAlign=middle;resizable=0;points=[];strokeColor=#FF3333;" vertex="1" connectable="0" parent="ExKyeE7MDLRv1U1W7YxB-19">
          <mxGeometry x="0.496" y="-2" relative="1" as="geometry">
            <mxPoint as="offset" />
          </mxGeometry>
        </mxCell>
        <mxCell id="ExKyeE7MDLRv1U1W7YxB-21" value="Gnd&lt;br&gt;" style="edgeLabel;html=1;align=center;verticalAlign=middle;resizable=0;points=[];" vertex="1" connectable="0" parent="ExKyeE7MDLRv1U1W7YxB-19">
          <mxGeometry x="-0.7806" relative="1" as="geometry">
            <mxPoint x="-10" y="-1" as="offset" />
          </mxGeometry>
        </mxCell>
        <mxCell id="ExKyeE7MDLRv1U1W7YxB-22" value="Pin 2" style="text;html=1;align=center;verticalAlign=middle;resizable=0;points=[];autosize=1;strokeColor=#FF3333;fillColor=none;" vertex="1" parent="1">
          <mxGeometry x="630" y="764" width="50" height="30" as="geometry" />
        </mxCell>
        <mxCell id="ExKyeE7MDLRv1U1W7YxB-23" value="Gnd" style="text;html=1;align=center;verticalAlign=middle;resizable=0;points=[];autosize=1;strokeColor=#FF3333;fillColor=none;" vertex="1" parent="1">
          <mxGeometry x="724" y="764" width="50" height="30" as="geometry" />
        </mxCell>
        <mxCell id="ExKyeE7MDLRv1U1W7YxB-24" value="" style="endArrow=none;html=1;rounded=0;strokeColor=#FF3333;" edge="1" parent="1">
          <mxGeometry width="50" height="50" relative="1" as="geometry">
            <mxPoint x="660" y="764" as="sourcePoint" />
            <mxPoint x="660" y="664" as="targetPoint" />
          </mxGeometry>
        </mxCell>
        <mxCell id="ExKyeE7MDLRv1U1W7YxB-25" value="V+&lt;br&gt;" style="edgeLabel;html=1;align=center;verticalAlign=middle;resizable=0;points=[];strokeColor=#FF3333;" vertex="1" connectable="0" parent="ExKyeE7MDLRv1U1W7YxB-24">
          <mxGeometry x="0.8863" y="2" relative="1" as="geometry">
            <mxPoint x="-8" y="4" as="offset" />
          </mxGeometry>
        </mxCell>
        <mxCell id="ExKyeE7MDLRv1U1W7YxB-26" value="" style="endArrow=none;html=1;rounded=0;exitX=0.446;exitY=0.047;exitDx=0;exitDy=0;exitPerimeter=0;strokeColor=#FF3333;" edge="1" parent="1" source="ExKyeE7MDLRv1U1W7YxB-23">
          <mxGeometry width="50" height="50" relative="1" as="geometry">
            <mxPoint x="745" y="764" as="sourcePoint" />
            <mxPoint x="744.77" y="664" as="targetPoint" />
          </mxGeometry>
        </mxCell>
        <mxCell id="ExKyeE7MDLRv1U1W7YxB-27" value="V-&lt;br&gt;" style="edgeLabel;html=1;align=center;verticalAlign=middle;resizable=0;points=[];strokeColor=#FF3333;" vertex="1" connectable="0" parent="ExKyeE7MDLRv1U1W7YxB-26">
          <mxGeometry x="0.8152" relative="1" as="geometry">
            <mxPoint x="-10" as="offset" />
          </mxGeometry>
        </mxCell>
        <mxCell id="ExKyeE7MDLRv1U1W7YxB-28" value="&lt;b&gt;TMAG5273A1_1&lt;/b&gt;" style="rounded=0;whiteSpace=wrap;html=1;rotation=-90;strokeColor=#00FF00;" vertex="1" parent="1">
          <mxGeometry x="-48.5" y="592.5" width="120" height="65" as="geometry" />
        </mxCell>
        <mxCell id="ExKyeE7MDLRv1U1W7YxB-29" value="" style="endArrow=none;html=1;rounded=0;strokeColor=#00FF00;" edge="1" parent="1">
          <mxGeometry width="50" height="50" relative="1" as="geometry">
            <mxPoint x="44" y="584.39" as="sourcePoint" />
            <mxPoint x="135" y="584" as="targetPoint" />
          </mxGeometry>
        </mxCell>
        <mxCell id="ExKyeE7MDLRv1U1W7YxB-30" value="&lt;font style=&quot;font-size: 9px;&quot;&gt;INT&lt;/font&gt;" style="edgeLabel;html=1;align=center;verticalAlign=middle;resizable=0;points=[];" vertex="1" connectable="0" parent="ExKyeE7MDLRv1U1W7YxB-29">
          <mxGeometry x="-0.5888" y="-1" relative="1" as="geometry">
            <mxPoint x="-31" as="offset" />
          </mxGeometry>
        </mxCell>
        <mxCell id="ExKyeE7MDLRv1U1W7YxB-31" value="GPIO_22" style="edgeLabel;html=1;align=center;verticalAlign=middle;resizable=0;points=[];" vertex="1" connectable="0" parent="ExKyeE7MDLRv1U1W7YxB-29">
          <mxGeometry x="0.5181" y="-1" relative="1" as="geometry">
            <mxPoint x="48" as="offset" />
          </mxGeometry>
        </mxCell>
        <mxCell id="ExKyeE7MDLRv1U1W7YxB-32" value="" style="endArrow=none;html=1;rounded=0;strokeColor=#CC00CC;" edge="1" parent="1">
          <mxGeometry width="50" height="50" relative="1" as="geometry">
            <mxPoint x="45" y="606" as="sourcePoint" />
            <mxPoint x="135" y="606" as="targetPoint" />
          </mxGeometry>
        </mxCell>
        <mxCell id="ExKyeE7MDLRv1U1W7YxB-33" value="&lt;font style=&quot;font-size: 9px;&quot;&gt;SCL&lt;/font&gt;" style="edgeLabel;html=1;align=center;verticalAlign=middle;resizable=0;points=[];" vertex="1" connectable="0" parent="ExKyeE7MDLRv1U1W7YxB-32">
          <mxGeometry x="-0.7651" y="-1" relative="1" as="geometry">
            <mxPoint x="-23" as="offset" />
          </mxGeometry>
        </mxCell>
        <mxCell id="ExKyeE7MDLRv1U1W7YxB-34" value="" style="endArrow=none;html=1;rounded=0;strokeColor=#00FF00;" edge="1" parent="1">
          <mxGeometry width="50" height="50" relative="1" as="geometry">
            <mxPoint x="-61" y="545" as="sourcePoint" />
            <mxPoint x="9" y="545" as="targetPoint" />
          </mxGeometry>
        </mxCell>
        <mxCell id="ExKyeE7MDLRv1U1W7YxB-35" value="" style="endArrow=none;html=1;rounded=0;strokeColor=#00FF00;" edge="1" parent="1">
          <mxGeometry width="50" height="50" relative="1" as="geometry">
            <mxPoint x="-61" y="605" as="sourcePoint" />
            <mxPoint x="-61" y="545" as="targetPoint" />
          </mxGeometry>
        </mxCell>
        <mxCell id="ExKyeE7MDLRv1U1W7YxB-36" value="" style="endArrow=none;html=1;rounded=0;strokeColor=#00FF00;" edge="1" parent="1">
          <mxGeometry width="50" height="50" relative="1" as="geometry">
            <mxPoint x="-71" y="605" as="sourcePoint" />
            <mxPoint x="-51" y="605" as="targetPoint" />
          </mxGeometry>
        </mxCell>
        <mxCell id="ExKyeE7MDLRv1U1W7YxB-37" value="" style="endArrow=none;html=1;rounded=0;strokeColor=#00FF00;" edge="1" parent="1">
          <mxGeometry width="50" height="50" relative="1" as="geometry">
            <mxPoint x="-71" y="615" as="sourcePoint" />
            <mxPoint x="-51" y="615" as="targetPoint" />
          </mxGeometry>
        </mxCell>
        <mxCell id="ExKyeE7MDLRv1U1W7YxB-38" value="" style="endArrow=none;html=1;rounded=0;strokeColor=#00FF00;" edge="1" parent="1">
          <mxGeometry width="50" height="50" relative="1" as="geometry">
            <mxPoint x="-61" y="695" as="sourcePoint" />
            <mxPoint x="-61" y="615" as="targetPoint" />
          </mxGeometry>
        </mxCell>
        <mxCell id="ExKyeE7MDLRv1U1W7YxB-39" value="" style="endArrow=none;html=1;rounded=0;strokeColor=#00FF00;" edge="1" parent="1">
          <mxGeometry width="50" height="50" relative="1" as="geometry">
            <mxPoint x="-61" y="695" as="sourcePoint" />
            <mxPoint x="9" y="695" as="targetPoint" />
          </mxGeometry>
        </mxCell>
        <mxCell id="ExKyeE7MDLRv1U1W7YxB-40" value="" style="endArrow=none;html=1;rounded=0;strokeColor=#FF3333;" edge="1" parent="1">
          <mxGeometry width="50" height="50" relative="1" as="geometry">
            <mxPoint x="9" y="735" as="sourcePoint" />
            <mxPoint x="9" y="685" as="targetPoint" />
          </mxGeometry>
        </mxCell>
        <mxCell id="ExKyeE7MDLRv1U1W7YxB-41" value="GND" style="edgeLabel;html=1;align=center;verticalAlign=middle;resizable=0;points=[];strokeColor=#00FF00;" vertex="1" connectable="0" parent="ExKyeE7MDLRv1U1W7YxB-40">
          <mxGeometry x="-0.5067" y="-1" relative="1" as="geometry">
            <mxPoint x="-1" y="13" as="offset" />
          </mxGeometry>
        </mxCell>
        <mxCell id="ExKyeE7MDLRv1U1W7YxB-42" value="" style="endArrow=none;html=1;rounded=0;strokeColor=#00FF00;" edge="1" parent="1">
          <mxGeometry width="50" height="50" relative="1" as="geometry">
            <mxPoint x="-41" y="615" as="sourcePoint" />
            <mxPoint x="-21" y="615" as="targetPoint" />
          </mxGeometry>
        </mxCell>
        <mxCell id="ExKyeE7MDLRv1U1W7YxB-43" value="Test&lt;br&gt;" style="edgeLabel;html=1;align=center;verticalAlign=middle;resizable=0;points=[];strokeColor=#00FF00;" vertex="1" connectable="0" parent="ExKyeE7MDLRv1U1W7YxB-42">
          <mxGeometry x="0.3655" y="-1" relative="1" as="geometry">
            <mxPoint x="-4" y="-11" as="offset" />
          </mxGeometry>
        </mxCell>
        <mxCell id="ExKyeE7MDLRv1U1W7YxB-44" value="" style="endArrow=none;html=1;rounded=0;strokeColor=#00FF00;" edge="1" parent="1">
          <mxGeometry width="50" height="50" relative="1" as="geometry">
            <mxPoint x="-41" y="695" as="sourcePoint" />
            <mxPoint x="-41" y="615" as="targetPoint" />
          </mxGeometry>
        </mxCell>
        <mxCell id="ExKyeE7MDLRv1U1W7YxB-45" value="&lt;font style=&quot;font-size: 8px;&quot;&gt;GND&lt;/font&gt;" style="edgeLabel;html=1;align=center;verticalAlign=middle;resizable=0;points=[];strokeColor=#00FF00;" vertex="1" connectable="0" parent="1">
          <mxGeometry x="19.000000000000057" y="656.9971428571426" as="geometry">
            <mxPoint x="3" y="21" as="offset" />
          </mxGeometry>
        </mxCell>
        <mxCell id="ExKyeE7MDLRv1U1W7YxB-46" value="&lt;b&gt;TMAG5273A1_2&lt;/b&gt;" style="rounded=0;whiteSpace=wrap;html=1;rotation=-90;strokeColor=#00FF00;" vertex="1" parent="1">
          <mxGeometry x="-43.44" y="372.5" width="120" height="65" as="geometry" />
        </mxCell>
        <mxCell id="ExKyeE7MDLRv1U1W7YxB-47" value="" style="endArrow=none;html=1;rounded=0;strokeColor=#FF3333;" edge="1" parent="1">
          <mxGeometry width="50" height="50" relative="1" as="geometry">
            <mxPoint x="14.060000000000002" y="345" as="sourcePoint" />
            <mxPoint x="14" y="310" as="targetPoint" />
          </mxGeometry>
        </mxCell>
        <mxCell id="ExKyeE7MDLRv1U1W7YxB-48" value="&lt;font style=&quot;font-size: 8px;&quot;&gt;VCC&lt;/font&gt;" style="edgeLabel;html=1;align=center;verticalAlign=middle;resizable=0;points=[];strokeColor=#00FF00;" vertex="1" connectable="0" parent="ExKyeE7MDLRv1U1W7YxB-47">
          <mxGeometry x="0.0515" y="-1" relative="1" as="geometry">
            <mxPoint x="9" y="25" as="offset" />
          </mxGeometry>
        </mxCell>
        <mxCell id="ExKyeE7MDLRv1U1W7YxB-49" value="Pin_1" style="edgeLabel;html=1;align=center;verticalAlign=middle;resizable=0;points=[];" vertex="1" connectable="0" parent="ExKyeE7MDLRv1U1W7YxB-47">
          <mxGeometry x="-0.3059" y="2" relative="1" as="geometry">
            <mxPoint y="-33" as="offset" />
          </mxGeometry>
        </mxCell>
        <mxCell id="ExKyeE7MDLRv1U1W7YxB-50" value="" style="endArrow=none;html=1;rounded=0;strokeColor=#00FF00;" edge="1" parent="1">
          <mxGeometry width="50" height="50" relative="1" as="geometry">
            <mxPoint x="-55.94" y="325" as="sourcePoint" />
            <mxPoint x="14.060000000000002" y="325" as="targetPoint" />
          </mxGeometry>
        </mxCell>
        <mxCell id="ExKyeE7MDLRv1U1W7YxB-51" value="" style="endArrow=none;html=1;rounded=0;strokeColor=#00FF00;" edge="1" parent="1">
          <mxGeometry width="50" height="50" relative="1" as="geometry">
            <mxPoint x="-55.94" y="385" as="sourcePoint" />
            <mxPoint x="-55.94" y="325" as="targetPoint" />
          </mxGeometry>
        </mxCell>
        <mxCell id="ExKyeE7MDLRv1U1W7YxB-52" value="" style="endArrow=none;html=1;rounded=0;strokeColor=#00FF00;" edge="1" parent="1">
          <mxGeometry width="50" height="50" relative="1" as="geometry">
            <mxPoint x="-65.94" y="385" as="sourcePoint" />
            <mxPoint x="-45.94" y="385" as="targetPoint" />
          </mxGeometry>
        </mxCell>
        <mxCell id="ExKyeE7MDLRv1U1W7YxB-53" value="" style="endArrow=none;html=1;rounded=0;strokeColor=#00FF00;" edge="1" parent="1">
          <mxGeometry width="50" height="50" relative="1" as="geometry">
            <mxPoint x="-65.94" y="395" as="sourcePoint" />
            <mxPoint x="-45.94" y="395" as="targetPoint" />
          </mxGeometry>
        </mxCell>
        <mxCell id="ExKyeE7MDLRv1U1W7YxB-54" value="" style="endArrow=none;html=1;rounded=0;strokeColor=#00FF00;" edge="1" parent="1">
          <mxGeometry width="50" height="50" relative="1" as="geometry">
            <mxPoint x="-55.94" y="475" as="sourcePoint" />
            <mxPoint x="-55.94" y="395" as="targetPoint" />
          </mxGeometry>
        </mxCell>
        <mxCell id="ExKyeE7MDLRv1U1W7YxB-55" value="" style="endArrow=none;html=1;rounded=0;strokeColor=#00FF00;" edge="1" parent="1">
          <mxGeometry width="50" height="50" relative="1" as="geometry">
            <mxPoint x="-55.94" y="475" as="sourcePoint" />
            <mxPoint x="14.060000000000002" y="475" as="targetPoint" />
          </mxGeometry>
        </mxCell>
        <mxCell id="ExKyeE7MDLRv1U1W7YxB-56" value="" style="endArrow=none;html=1;rounded=0;strokeColor=#FF3333;" edge="1" parent="1">
          <mxGeometry width="50" height="50" relative="1" as="geometry">
            <mxPoint x="14" y="495" as="sourcePoint" />
            <mxPoint x="14" y="465" as="targetPoint" />
          </mxGeometry>
        </mxCell>
        <mxCell id="ExKyeE7MDLRv1U1W7YxB-57" value="GND" style="edgeLabel;html=1;align=center;verticalAlign=middle;resizable=0;points=[];strokeColor=#00FF00;" vertex="1" connectable="0" parent="ExKyeE7MDLRv1U1W7YxB-56">
          <mxGeometry x="-0.5067" y="-1" relative="1" as="geometry">
            <mxPoint x="-6" y="12" as="offset" />
          </mxGeometry>
        </mxCell>
        <mxCell id="ExKyeE7MDLRv1U1W7YxB-58" value="" style="endArrow=none;html=1;rounded=0;strokeColor=#00FF00;" edge="1" parent="1">
          <mxGeometry width="50" height="50" relative="1" as="geometry">
            <mxPoint x="-35.94" y="395" as="sourcePoint" />
            <mxPoint x="-15.939999999999998" y="395" as="targetPoint" />
          </mxGeometry>
        </mxCell>
        <mxCell id="ExKyeE7MDLRv1U1W7YxB-59" value="Test&lt;br&gt;" style="edgeLabel;html=1;align=center;verticalAlign=middle;resizable=0;points=[];strokeColor=#00FF00;" vertex="1" connectable="0" parent="ExKyeE7MDLRv1U1W7YxB-58">
          <mxGeometry x="0.3655" y="-1" relative="1" as="geometry">
            <mxPoint x="-4" y="-11" as="offset" />
          </mxGeometry>
        </mxCell>
        <mxCell id="ExKyeE7MDLRv1U1W7YxB-60" value="" style="endArrow=none;html=1;rounded=0;strokeColor=#00FF00;" edge="1" parent="1">
          <mxGeometry width="50" height="50" relative="1" as="geometry">
            <mxPoint x="-35.94" y="475" as="sourcePoint" />
            <mxPoint x="-35.94" y="395" as="targetPoint" />
          </mxGeometry>
        </mxCell>
        <mxCell id="ExKyeE7MDLRv1U1W7YxB-61" value="Batterie&lt;br&gt;" style="rounded=0;whiteSpace=wrap;html=1;strokeColor=#FF3333;" vertex="1" parent="1">
          <mxGeometry x="520" y="430" width="50" height="60" as="geometry" />
        </mxCell>
        <mxCell id="ExKyeE7MDLRv1U1W7YxB-62" value="Pin 2" style="rounded=0;whiteSpace=wrap;html=1;strokeColor=#FF3333;" vertex="1" parent="1">
          <mxGeometry x="30" y="-90" width="40" height="15" as="geometry" />
        </mxCell>
        <mxCell id="ExKyeE7MDLRv1U1W7YxB-64" value="" style="endArrow=none;html=1;rounded=0;strokeColor=#FF3333;exitX=1;exitY=0.5;exitDx=0;exitDy=0;" edge="1" parent="1" source="ExKyeE7MDLRv1U1W7YxB-28">
          <mxGeometry width="50" height="50" relative="1" as="geometry">
            <mxPoint x="10" y="560" as="sourcePoint" />
            <mxPoint x="10" y="540" as="targetPoint" />
          </mxGeometry>
        </mxCell>
        <mxCell id="ExKyeE7MDLRv1U1W7YxB-65" value="&lt;font style=&quot;font-size: 8px;&quot;&gt;VCC&lt;/font&gt;" style="edgeLabel;html=1;align=center;verticalAlign=middle;resizable=0;points=[];strokeColor=#00FF00;" vertex="1" connectable="0" parent="ExKyeE7MDLRv1U1W7YxB-64">
          <mxGeometry x="0.0515" y="-1" relative="1" as="geometry">
            <mxPoint x="9" y="22" as="offset" />
          </mxGeometry>
        </mxCell>
        <mxCell id="ExKyeE7MDLRv1U1W7YxB-66" value="Pin_1" style="edgeLabel;html=1;align=center;verticalAlign=middle;resizable=0;points=[];" vertex="1" connectable="0" parent="ExKyeE7MDLRv1U1W7YxB-64">
          <mxGeometry x="0.5711" y="-2" relative="1" as="geometry">
            <mxPoint y="-11" as="offset" />
          </mxGeometry>
        </mxCell>
        <mxCell id="ExKyeE7MDLRv1U1W7YxB-67" value="" style="endArrow=none;html=1;rounded=0;strokeColor=#FF3333;" edge="1" parent="1">
          <mxGeometry width="50" height="50" relative="1" as="geometry">
            <mxPoint x="104" y="-60" as="sourcePoint" />
            <mxPoint x="104.06" y="-75" as="targetPoint" />
          </mxGeometry>
        </mxCell>
        <mxCell id="ExKyeE7MDLRv1U1W7YxB-145" value="5V out" style="edgeLabel;html=1;align=center;verticalAlign=middle;resizable=0;points=[];" vertex="1" connectable="0" parent="ExKyeE7MDLRv1U1W7YxB-67">
          <mxGeometry x="-0.298" relative="1" as="geometry">
            <mxPoint y="15" as="offset" />
          </mxGeometry>
        </mxCell>
        <mxCell id="ExKyeE7MDLRv1U1W7YxB-68" value="Pin 4&lt;br&gt;" style="rounded=0;whiteSpace=wrap;html=1;strokeColor=#FF3333;" vertex="1" parent="1">
          <mxGeometry x="84.06" y="-90" width="40" height="15" as="geometry" />
        </mxCell>
        <mxCell id="ExKyeE7MDLRv1U1W7YxB-69" value="&lt;b&gt;ADS1115&lt;/b&gt;" style="rounded=1;whiteSpace=wrap;html=1;strokeColor=#3399FF;" vertex="1" parent="1">
          <mxGeometry x="592" y="-130" width="170" height="140" as="geometry" />
        </mxCell>
        <mxCell id="ExKyeE7MDLRv1U1W7YxB-70" value="" style="endArrow=none;html=1;rounded=0;strokeColor=#CC00CC;" edge="1" parent="1">
          <mxGeometry width="50" height="50" relative="1" as="geometry">
            <mxPoint x="642" y="-130" as="sourcePoint" />
            <mxPoint x="642" y="-180" as="targetPoint" />
          </mxGeometry>
        </mxCell>
        <mxCell id="ExKyeE7MDLRv1U1W7YxB-71" value="SDA" style="edgeLabel;html=1;align=center;verticalAlign=middle;resizable=0;points=[];strokeColor=#3399FF;" vertex="1" connectable="0" parent="ExKyeE7MDLRv1U1W7YxB-70">
          <mxGeometry x="-0.4" y="-4" relative="1" as="geometry">
            <mxPoint x="-4" y="26" as="offset" />
          </mxGeometry>
        </mxCell>
        <mxCell id="ExKyeE7MDLRv1U1W7YxB-72" value="" style="endArrow=none;html=1;rounded=0;strokeColor=#CC00CC;" edge="1" parent="1">
          <mxGeometry width="50" height="50" relative="1" as="geometry">
            <mxPoint x="702" y="-130" as="sourcePoint" />
            <mxPoint x="702" y="-180" as="targetPoint" />
          </mxGeometry>
        </mxCell>
        <mxCell id="ExKyeE7MDLRv1U1W7YxB-73" value="SCL" style="edgeLabel;html=1;align=center;verticalAlign=middle;resizable=0;points=[];strokeColor=#3399FF;" vertex="1" connectable="0" parent="ExKyeE7MDLRv1U1W7YxB-72">
          <mxGeometry x="-0.4" y="-4" relative="1" as="geometry">
            <mxPoint x="-4" y="26" as="offset" />
          </mxGeometry>
        </mxCell>
        <mxCell id="ExKyeE7MDLRv1U1W7YxB-74" value="" style="endArrow=none;html=1;rounded=0;strokeColor=#3399FF;" edge="1" parent="1">
          <mxGeometry width="50" height="50" relative="1" as="geometry">
            <mxPoint x="762" y="-80" as="sourcePoint" />
            <mxPoint x="862" y="-80" as="targetPoint" />
          </mxGeometry>
        </mxCell>
        <mxCell id="ExKyeE7MDLRv1U1W7YxB-75" value="VDD" style="edgeLabel;html=1;align=center;verticalAlign=middle;resizable=0;points=[];strokeColor=#3399FF;" vertex="1" connectable="0" parent="ExKyeE7MDLRv1U1W7YxB-74">
          <mxGeometry x="-0.7105" y="-2" relative="1" as="geometry">
            <mxPoint x="-34" y="-2" as="offset" />
          </mxGeometry>
        </mxCell>
        <mxCell id="ExKyeE7MDLRv1U1W7YxB-76" value="" style="endArrow=none;html=1;rounded=0;strokeColor=#3399FF;" edge="1" parent="1">
          <mxGeometry width="50" height="50" relative="1" as="geometry">
            <mxPoint x="862" y="-50" as="sourcePoint" />
            <mxPoint x="862" y="-80" as="targetPoint" />
          </mxGeometry>
        </mxCell>
        <mxCell id="ExKyeE7MDLRv1U1W7YxB-77" value="" style="endArrow=none;html=1;rounded=0;strokeColor=#3399FF;" edge="1" parent="1">
          <mxGeometry width="50" height="50" relative="1" as="geometry">
            <mxPoint x="852" y="-50" as="sourcePoint" />
            <mxPoint x="872" y="-50" as="targetPoint" />
          </mxGeometry>
        </mxCell>
        <mxCell id="ExKyeE7MDLRv1U1W7YxB-78" value="" style="endArrow=none;html=1;rounded=0;strokeColor=#3399FF;" edge="1" parent="1">
          <mxGeometry width="50" height="50" relative="1" as="geometry">
            <mxPoint x="852" y="-40" as="sourcePoint" />
            <mxPoint x="872" y="-40" as="targetPoint" />
          </mxGeometry>
        </mxCell>
        <mxCell id="ExKyeE7MDLRv1U1W7YxB-79" value="" style="endArrow=none;html=1;rounded=0;strokeColor=#3399FF;" edge="1" parent="1">
          <mxGeometry width="50" height="50" relative="1" as="geometry">
            <mxPoint x="862" y="-10.000000000000004" as="sourcePoint" />
            <mxPoint x="862" y="-40" as="targetPoint" />
          </mxGeometry>
        </mxCell>
        <mxCell id="ExKyeE7MDLRv1U1W7YxB-80" value="GND" style="text;html=1;align=center;verticalAlign=middle;resizable=0;points=[];autosize=1;strokeColor=#3399FF;fillColor=none;" vertex="1" parent="1">
          <mxGeometry x="837" y="-12.000000000000004" width="50" height="30" as="geometry" />
        </mxCell>
        <mxCell id="ExKyeE7MDLRv1U1W7YxB-81" value="" style="endArrow=none;html=1;rounded=0;strokeColor=#3399FF;" edge="1" parent="1">
          <mxGeometry width="50" height="50" relative="1" as="geometry">
            <mxPoint x="862" y="-80" as="sourcePoint" />
            <mxPoint x="862" y="-130" as="targetPoint" />
          </mxGeometry>
        </mxCell>
        <mxCell id="ExKyeE7MDLRv1U1W7YxB-82" value="VDD" style="text;html=1;align=center;verticalAlign=middle;resizable=0;points=[];autosize=1;strokeColor=#3399FF;fillColor=none;" vertex="1" parent="1">
          <mxGeometry x="837" y="-152" width="50" height="30" as="geometry" />
        </mxCell>
        <mxCell id="ExKyeE7MDLRv1U1W7YxB-83" value="0.1 uF" style="text;html=1;align=center;verticalAlign=middle;resizable=0;points=[];autosize=1;strokeColor=#3399FF;fillColor=none;" vertex="1" parent="1">
          <mxGeometry x="881" y="-60" width="60" height="30" as="geometry" />
        </mxCell>
        <mxCell id="ExKyeE7MDLRv1U1W7YxB-84" value="" style="endArrow=none;html=1;rounded=0;exitX=0.5;exitY=0;exitDx=0;exitDy=0;strokeColor=#3399FF;" edge="1" parent="1" source="ExKyeE7MDLRv1U1W7YxB-96">
          <mxGeometry width="50" height="50" relative="1" as="geometry">
            <mxPoint x="742" y="50" as="sourcePoint" />
            <mxPoint x="742" y="9.999999999999996" as="targetPoint" />
          </mxGeometry>
        </mxCell>
        <mxCell id="ExKyeE7MDLRv1U1W7YxB-85" value="Ain3&lt;br&gt;" style="edgeLabel;html=1;align=center;verticalAlign=middle;resizable=0;points=[];strokeColor=#3399FF;" vertex="1" connectable="0" parent="ExKyeE7MDLRv1U1W7YxB-84">
          <mxGeometry x="0.3286" y="1" relative="1" as="geometry">
            <mxPoint y="-40" as="offset" />
          </mxGeometry>
        </mxCell>
        <mxCell id="ExKyeE7MDLRv1U1W7YxB-86" value="VrY&lt;br&gt;" style="edgeLabel;html=1;align=center;verticalAlign=middle;resizable=0;points=[];strokeColor=#3399FF;" vertex="1" connectable="0" parent="ExKyeE7MDLRv1U1W7YxB-84">
          <mxGeometry x="-0.7572" relative="1" as="geometry">
            <mxPoint x="10" as="offset" />
          </mxGeometry>
        </mxCell>
        <mxCell id="ExKyeE7MDLRv1U1W7YxB-87" value="" style="endArrow=none;html=1;rounded=0;exitX=0.124;exitY=-0.011;exitDx=0;exitDy=0;exitPerimeter=0;strokeColor=#3399FF;" edge="1" parent="1" source="ExKyeE7MDLRv1U1W7YxB-96">
          <mxGeometry width="50" height="50" relative="1" as="geometry">
            <mxPoint x="712" y="50" as="sourcePoint" />
            <mxPoint x="712" y="9.999999999999996" as="targetPoint" />
          </mxGeometry>
        </mxCell>
        <mxCell id="ExKyeE7MDLRv1U1W7YxB-88" value="Ain 2" style="edgeLabel;html=1;align=center;verticalAlign=middle;resizable=0;points=[];strokeColor=#3399FF;" vertex="1" connectable="0" parent="ExKyeE7MDLRv1U1W7YxB-87">
          <mxGeometry x="0.3286" y="1" relative="1" as="geometry">
            <mxPoint y="-40" as="offset" />
          </mxGeometry>
        </mxCell>
        <mxCell id="ExKyeE7MDLRv1U1W7YxB-89" value="VrX&lt;br&gt;" style="edgeLabel;html=1;align=center;verticalAlign=middle;resizable=0;points=[];strokeColor=#3399FF;" vertex="1" connectable="0" parent="ExKyeE7MDLRv1U1W7YxB-87">
          <mxGeometry x="-0.793" y="3" relative="1" as="geometry">
            <mxPoint x="-7" as="offset" />
          </mxGeometry>
        </mxCell>
        <mxCell id="ExKyeE7MDLRv1U1W7YxB-90" value="" style="endArrow=none;html=1;rounded=0;exitX=0.664;exitY=-0.011;exitDx=0;exitDy=0;exitPerimeter=0;strokeColor=#3399FF;" edge="1" parent="1" source="ExKyeE7MDLRv1U1W7YxB-97">
          <mxGeometry width="50" height="50" relative="1" as="geometry">
            <mxPoint x="640.94" y="79.0499999999999" as="sourcePoint" />
            <mxPoint x="642" y="9.049999999999994" as="targetPoint" />
          </mxGeometry>
        </mxCell>
        <mxCell id="ExKyeE7MDLRv1U1W7YxB-91" value="Ain 1" style="edgeLabel;html=1;align=center;verticalAlign=middle;resizable=0;points=[];strokeColor=#3399FF;" vertex="1" connectable="0" parent="ExKyeE7MDLRv1U1W7YxB-90">
          <mxGeometry x="0.3286" y="1" relative="1" as="geometry">
            <mxPoint y="-39" as="offset" />
          </mxGeometry>
        </mxCell>
        <mxCell id="ExKyeE7MDLRv1U1W7YxB-92" value="VrY" style="edgeLabel;html=1;align=center;verticalAlign=middle;resizable=0;points=[];strokeColor=#3399FF;" vertex="1" connectable="0" parent="ExKyeE7MDLRv1U1W7YxB-90">
          <mxGeometry x="-0.7952" y="1" relative="1" as="geometry">
            <mxPoint x="11" as="offset" />
          </mxGeometry>
        </mxCell>
        <mxCell id="ExKyeE7MDLRv1U1W7YxB-93" value="" style="endArrow=none;html=1;rounded=0;exitX=0.333;exitY=0.016;exitDx=0;exitDy=0;exitPerimeter=0;strokeColor=#3399FF;" edge="1" parent="1" source="ExKyeE7MDLRv1U1W7YxB-97">
          <mxGeometry width="50" height="50" relative="1" as="geometry">
            <mxPoint x="612" y="49.05000000000001" as="sourcePoint" />
            <mxPoint x="612" y="9.049999999999994" as="targetPoint" />
          </mxGeometry>
        </mxCell>
        <mxCell id="ExKyeE7MDLRv1U1W7YxB-94" value="Ain 0" style="edgeLabel;html=1;align=center;verticalAlign=middle;resizable=0;points=[];strokeColor=#3399FF;" vertex="1" connectable="0" parent="ExKyeE7MDLRv1U1W7YxB-93">
          <mxGeometry x="0.3286" y="1" relative="1" as="geometry">
            <mxPoint x="2" y="-41" as="offset" />
          </mxGeometry>
        </mxCell>
        <mxCell id="ExKyeE7MDLRv1U1W7YxB-95" value="VrX" style="edgeLabel;html=1;align=center;verticalAlign=middle;resizable=0;points=[];strokeColor=#3399FF;" vertex="1" connectable="0" parent="ExKyeE7MDLRv1U1W7YxB-93">
          <mxGeometry x="-0.4371" y="-2" relative="1" as="geometry">
            <mxPoint x="-12" y="15" as="offset" />
          </mxGeometry>
        </mxCell>
        <mxCell id="ExKyeE7MDLRv1U1W7YxB-96" value="Joystick2&lt;br&gt;" style="rounded=0;whiteSpace=wrap;html=1;strokeColor=#99CCFF;" vertex="1" parent="1">
          <mxGeometry x="702" y="99.05000000000001" width="80" height="80" as="geometry" />
        </mxCell>
        <mxCell id="ExKyeE7MDLRv1U1W7YxB-97" value="Joystick1" style="rounded=0;whiteSpace=wrap;html=1;strokeColor=#99CCFF;" vertex="1" parent="1">
          <mxGeometry x="582" y="99.05000000000001" width="90" height="80" as="geometry" />
        </mxCell>
        <mxCell id="ExKyeE7MDLRv1U1W7YxB-98" value="" style="endArrow=none;html=1;rounded=0;" edge="1" parent="1">
          <mxGeometry width="50" height="50" relative="1" as="geometry">
            <mxPoint x="705" y="179.05" as="sourcePoint" />
            <mxPoint x="705" y="179.05" as="targetPoint" />
          </mxGeometry>
        </mxCell>
        <mxCell id="ExKyeE7MDLRv1U1W7YxB-99" value="" style="endArrow=none;html=1;rounded=0;strokeColor=#FF3333;" edge="1" parent="1">
          <mxGeometry width="50" height="50" relative="1" as="geometry">
            <mxPoint x="662" y="200" as="sourcePoint" />
            <mxPoint x="662" y="180" as="targetPoint" />
          </mxGeometry>
        </mxCell>
        <mxCell id="ExKyeE7MDLRv1U1W7YxB-100" value="5V" style="edgeLabel;html=1;align=center;verticalAlign=middle;resizable=0;points=[];" vertex="1" connectable="0" parent="ExKyeE7MDLRv1U1W7YxB-99">
          <mxGeometry x="0.5143" y="3" relative="1" as="geometry">
            <mxPoint x="3" y="-15" as="offset" />
          </mxGeometry>
        </mxCell>
        <mxCell id="ExKyeE7MDLRv1U1W7YxB-101" value="" style="endArrow=none;html=1;rounded=0;strokeColor=#FF3333;" edge="1" parent="1">
          <mxGeometry width="50" height="50" relative="1" as="geometry">
            <mxPoint x="662" y="200" as="sourcePoint" />
            <mxPoint x="882" y="200" as="targetPoint" />
          </mxGeometry>
        </mxCell>
        <mxCell id="ExKyeE7MDLRv1U1W7YxB-102" value="" style="endArrow=none;html=1;rounded=0;strokeColor=#FF3333;" edge="1" parent="1">
          <mxGeometry width="50" height="50" relative="1" as="geometry">
            <mxPoint x="702" y="199.05" as="sourcePoint" />
            <mxPoint x="702" y="179.05" as="targetPoint" />
          </mxGeometry>
        </mxCell>
        <mxCell id="ExKyeE7MDLRv1U1W7YxB-103" value="5V" style="edgeLabel;html=1;align=center;verticalAlign=middle;resizable=0;points=[];" vertex="1" connectable="0" parent="ExKyeE7MDLRv1U1W7YxB-102">
          <mxGeometry x="0.705" y="-1" relative="1" as="geometry">
            <mxPoint x="8" y="-12" as="offset" />
          </mxGeometry>
        </mxCell>
        <mxCell id="ExKyeE7MDLRv1U1W7YxB-104" value="Pin 4" style="text;html=1;align=center;verticalAlign=middle;resizable=0;points=[];autosize=1;strokeColor=#FF3333;fillColor=none;" vertex="1" parent="1">
          <mxGeometry x="882" y="179.05" width="50" height="30" as="geometry" />
        </mxCell>
        <mxCell id="ExKyeE7MDLRv1U1W7YxB-105" value="" style="endArrow=none;html=1;rounded=0;strokeColor=#3399FF;" edge="1" parent="1">
          <mxGeometry width="50" height="50" relative="1" as="geometry">
            <mxPoint x="762" y="-20.69" as="sourcePoint" />
            <mxPoint x="812" y="-21.000000000000004" as="targetPoint" />
          </mxGeometry>
        </mxCell>
        <mxCell id="ExKyeE7MDLRv1U1W7YxB-106" value="GND" style="edgeLabel;html=1;align=center;verticalAlign=middle;resizable=0;points=[];strokeColor=#3399FF;" vertex="1" connectable="0" parent="ExKyeE7MDLRv1U1W7YxB-105">
          <mxGeometry x="-0.7105" y="-2" relative="1" as="geometry">
            <mxPoint x="-34" y="-2" as="offset" />
          </mxGeometry>
        </mxCell>
        <mxCell id="ExKyeE7MDLRv1U1W7YxB-107" value="" style="endArrow=none;html=1;rounded=0;strokeColor=#3399FF;" edge="1" parent="1">
          <mxGeometry width="50" height="50" relative="1" as="geometry">
            <mxPoint x="812" y="-3.552713678800501e-15" as="sourcePoint" />
            <mxPoint x="812" y="-21.000000000000004" as="targetPoint" />
          </mxGeometry>
        </mxCell>
        <mxCell id="ExKyeE7MDLRv1U1W7YxB-108" value="" style="endArrow=none;html=1;rounded=0;entryX=0.007;entryY=0.4;entryDx=0;entryDy=0;entryPerimeter=0;strokeColor=#3399FF;" edge="1" parent="1" target="ExKyeE7MDLRv1U1W7YxB-80">
          <mxGeometry width="50" height="50" relative="1" as="geometry">
            <mxPoint x="812" y="-3.552713678800501e-15" as="sourcePoint" />
            <mxPoint x="862" y="-50" as="targetPoint" />
          </mxGeometry>
        </mxCell>
        <mxCell id="ExKyeE7MDLRv1U1W7YxB-109" value="" style="endArrow=none;html=1;rounded=0;strokeColor=#FF3333;" edge="1" parent="1">
          <mxGeometry width="50" height="50" relative="1" as="geometry">
            <mxPoint x="642" y="220" as="sourcePoint" />
            <mxPoint x="642" y="180" as="targetPoint" />
          </mxGeometry>
        </mxCell>
        <mxCell id="ExKyeE7MDLRv1U1W7YxB-110" value="" style="endArrow=none;html=1;rounded=0;strokeColor=#FF3333;" edge="1" parent="1">
          <mxGeometry width="50" height="50" relative="1" as="geometry">
            <mxPoint x="642" y="220" as="sourcePoint" />
            <mxPoint x="970" y="220" as="targetPoint" />
          </mxGeometry>
        </mxCell>
        <mxCell id="ExKyeE7MDLRv1U1W7YxB-111" value="" style="endArrow=none;html=1;rounded=0;strokeColor=#FF3333;entryX=0.308;entryY=0;entryDx=0;entryDy=0;entryPerimeter=0;" edge="1" parent="1" target="ExKyeE7MDLRv1U1W7YxB-112">
          <mxGeometry width="50" height="50" relative="1" as="geometry">
            <mxPoint x="782" y="150" as="sourcePoint" />
            <mxPoint x="942" y="150" as="targetPoint" />
          </mxGeometry>
        </mxCell>
        <mxCell id="ExKyeE7MDLRv1U1W7YxB-112" value="GND" style="text;html=1;align=center;verticalAlign=middle;resizable=0;points=[];autosize=1;strokeColor=#FF3333;fillColor=none;" vertex="1" parent="1">
          <mxGeometry x="941" y="149.05" width="50" height="30" as="geometry" />
        </mxCell>
        <mxCell id="ExKyeE7MDLRv1U1W7YxB-113" value="" style="endArrow=none;html=1;rounded=0;strokeColor=#3399FF;" edge="1" parent="1">
          <mxGeometry width="50" height="50" relative="1" as="geometry">
            <mxPoint x="542" y="-80" as="sourcePoint" />
            <mxPoint x="592" y="-80" as="targetPoint" />
          </mxGeometry>
        </mxCell>
        <mxCell id="ExKyeE7MDLRv1U1W7YxB-114" value="ADDR" style="edgeLabel;html=1;align=center;verticalAlign=middle;resizable=0;points=[];strokeColor=#3399FF;" vertex="1" connectable="0" parent="ExKyeE7MDLRv1U1W7YxB-113">
          <mxGeometry x="0.376" y="-3" relative="1" as="geometry">
            <mxPoint x="36" y="-3" as="offset" />
          </mxGeometry>
        </mxCell>
        <mxCell id="ExKyeE7MDLRv1U1W7YxB-115" value="" style="endArrow=none;html=1;rounded=0;strokeColor=#3399FF;" edge="1" parent="1">
          <mxGeometry width="50" height="50" relative="1" as="geometry">
            <mxPoint x="542" y="-45.25" as="sourcePoint" />
            <mxPoint x="592" y="-45.25" as="targetPoint" />
          </mxGeometry>
        </mxCell>
        <mxCell id="ExKyeE7MDLRv1U1W7YxB-116" value="ALERT/RDY" style="edgeLabel;html=1;align=center;verticalAlign=middle;resizable=0;points=[];strokeColor=#3399FF;" vertex="1" connectable="0" parent="ExKyeE7MDLRv1U1W7YxB-115">
          <mxGeometry x="0.376" y="-3" relative="1" as="geometry">
            <mxPoint x="48" y="3" as="offset" />
          </mxGeometry>
        </mxCell>
        <mxCell id="ExKyeE7MDLRv1U1W7YxB-117" value="GPIO17" style="text;html=1;align=center;verticalAlign=middle;resizable=0;points=[];autosize=1;strokeColor=#3399FF;fillColor=none;" vertex="1" parent="1">
          <mxGeometry x="472" y="-97.5" width="70" height="30" as="geometry" />
        </mxCell>
        <mxCell id="ExKyeE7MDLRv1U1W7YxB-118" value="GND" style="text;html=1;align=center;verticalAlign=middle;resizable=0;points=[];autosize=1;strokeColor=#3399FF;fillColor=none;" vertex="1" parent="1">
          <mxGeometry x="492" y="-60" width="50" height="30" as="geometry" />
        </mxCell>
        <mxCell id="ExKyeE7MDLRv1U1W7YxB-119" value="" style="endArrow=none;html=1;rounded=0;strokeColor=#FF3333;" edge="1" parent="1">
          <mxGeometry width="50" height="50" relative="1" as="geometry">
            <mxPoint x="970" y="220" as="sourcePoint" />
            <mxPoint x="970" y="180" as="targetPoint" />
          </mxGeometry>
        </mxCell>
        <mxCell id="ExKyeE7MDLRv1U1W7YxB-120" value="" style="endArrow=none;html=1;rounded=0;strokeColor=#CC00CC;" edge="1" parent="1">
          <mxGeometry width="50" height="50" relative="1" as="geometry">
            <mxPoint x="45" y="620" as="sourcePoint" />
            <mxPoint x="135" y="620" as="targetPoint" />
          </mxGeometry>
        </mxCell>
        <mxCell id="ExKyeE7MDLRv1U1W7YxB-121" value="&lt;font style=&quot;font-size: 9px;&quot;&gt;SDA&lt;/font&gt;" style="edgeLabel;html=1;align=center;verticalAlign=middle;resizable=0;points=[];" vertex="1" connectable="0" parent="ExKyeE7MDLRv1U1W7YxB-120">
          <mxGeometry x="-0.4952" y="-1" relative="1" as="geometry">
            <mxPoint x="-37" y="-1" as="offset" />
          </mxGeometry>
        </mxCell>
        <mxCell id="ExKyeE7MDLRv1U1W7YxB-122" value="" style="endArrow=none;html=1;rounded=0;strokeColor=#00FF00;" edge="1" parent="1">
          <mxGeometry width="50" height="50" relative="1" as="geometry">
            <mxPoint x="50" y="372.89" as="sourcePoint" />
            <mxPoint x="141" y="372.5" as="targetPoint" />
          </mxGeometry>
        </mxCell>
        <mxCell id="ExKyeE7MDLRv1U1W7YxB-123" value="&lt;font style=&quot;font-size: 9px;&quot;&gt;INT&lt;/font&gt;" style="edgeLabel;html=1;align=center;verticalAlign=middle;resizable=0;points=[];" vertex="1" connectable="0" parent="ExKyeE7MDLRv1U1W7YxB-122">
          <mxGeometry x="-0.5888" y="-1" relative="1" as="geometry">
            <mxPoint x="-31" as="offset" />
          </mxGeometry>
        </mxCell>
        <mxCell id="ExKyeE7MDLRv1U1W7YxB-124" value="GPIO_27" style="edgeLabel;html=1;align=center;verticalAlign=middle;resizable=0;points=[];" vertex="1" connectable="0" parent="ExKyeE7MDLRv1U1W7YxB-122">
          <mxGeometry x="0.2385" y="-2" relative="1" as="geometry">
            <mxPoint x="48" y="-4" as="offset" />
          </mxGeometry>
        </mxCell>
        <mxCell id="ExKyeE7MDLRv1U1W7YxB-125" value="" style="endArrow=none;html=1;rounded=0;strokeColor=#CC00CC;" edge="1" parent="1">
          <mxGeometry width="50" height="50" relative="1" as="geometry">
            <mxPoint x="51" y="394.5" as="sourcePoint" />
            <mxPoint x="141" y="394.5" as="targetPoint" />
          </mxGeometry>
        </mxCell>
        <mxCell id="ExKyeE7MDLRv1U1W7YxB-126" value="&lt;font style=&quot;font-size: 9px;&quot;&gt;SCL&lt;/font&gt;" style="edgeLabel;html=1;align=center;verticalAlign=middle;resizable=0;points=[];" vertex="1" connectable="0" parent="ExKyeE7MDLRv1U1W7YxB-125">
          <mxGeometry x="-0.7651" y="-1" relative="1" as="geometry">
            <mxPoint x="-23" as="offset" />
          </mxGeometry>
        </mxCell>
        <mxCell id="ExKyeE7MDLRv1U1W7YxB-127" value="" style="endArrow=none;html=1;rounded=0;strokeColor=#CC00CC;" edge="1" parent="1">
          <mxGeometry width="50" height="50" relative="1" as="geometry">
            <mxPoint x="51" y="408.5" as="sourcePoint" />
            <mxPoint x="141" y="408.5" as="targetPoint" />
          </mxGeometry>
        </mxCell>
        <mxCell id="ExKyeE7MDLRv1U1W7YxB-128" value="&lt;font style=&quot;font-size: 9px;&quot;&gt;SDA&lt;/font&gt;" style="edgeLabel;html=1;align=center;verticalAlign=middle;resizable=0;points=[];" vertex="1" connectable="0" parent="ExKyeE7MDLRv1U1W7YxB-127">
          <mxGeometry x="-0.4952" y="-1" relative="1" as="geometry">
            <mxPoint x="-37" y="-1" as="offset" />
          </mxGeometry>
        </mxCell>
        <mxCell id="ExKyeE7MDLRv1U1W7YxB-129" value="" style="swimlane;startSize=0;strokeColor=#00FF00;" vertex="1" parent="1">
          <mxGeometry x="-110" y="270" width="330" height="540" as="geometry">
            <mxRectangle x="-10" y="315" width="50" height="40" as="alternateBounds" />
          </mxGeometry>
        </mxCell>
        <mxCell id="ExKyeE7MDLRv1U1W7YxB-130" value="Module Trigger" style="rounded=0;whiteSpace=wrap;html=1;strokeColor=#00FF00;" vertex="1" parent="ExKyeE7MDLRv1U1W7YxB-129">
          <mxGeometry y="510" width="81" height="30" as="geometry" />
        </mxCell>
        <mxCell id="ExKyeE7MDLRv1U1W7YxB-131" value="&lt;font style=&quot;font-size: 8px;&quot;&gt;GND&lt;/font&gt;" style="edgeLabel;html=1;align=center;verticalAlign=middle;resizable=0;points=[];strokeColor=#00FF00;" vertex="1" connectable="0" parent="ExKyeE7MDLRv1U1W7YxB-129">
          <mxGeometry x="134.06000000000006" y="165.49714285714265" as="geometry">
            <mxPoint x="3" y="21" as="offset" />
          </mxGeometry>
        </mxCell>
        <mxCell id="ExKyeE7MDLRv1U1W7YxB-132" value="" style="swimlane;startSize=0;strokeColor=#FF3333;" vertex="1" parent="1">
          <mxGeometry x="470" y="335" width="410" height="505" as="geometry" />
        </mxCell>
        <mxCell id="ExKyeE7MDLRv1U1W7YxB-133" value="Module d&#39;alimentation" style="rounded=0;whiteSpace=wrap;html=1;strokeColor=#FF3333;" vertex="1" parent="ExKyeE7MDLRv1U1W7YxB-132">
          <mxGeometry y="445" width="120" height="60" as="geometry" />
        </mxCell>
        <mxCell id="ExKyeE7MDLRv1U1W7YxB-134" value="MT3608&lt;br&gt;" style="rounded=0;whiteSpace=wrap;html=1;strokeColor=#FF3333;" vertex="1" parent="ExKyeE7MDLRv1U1W7YxB-132">
          <mxGeometry x="160" y="269" width="120" height="60" as="geometry" />
        </mxCell>
        <mxCell id="ExKyeE7MDLRv1U1W7YxB-142" value="Button ON/OFF" style="rounded=0;whiteSpace=wrap;html=1;strokeColor=#FF3333;" vertex="1" parent="ExKyeE7MDLRv1U1W7YxB-132">
          <mxGeometry x="170" y="190" width="50" height="50" as="geometry" />
        </mxCell>
        <mxCell id="ExKyeE7MDLRv1U1W7YxB-135" value="" style="endArrow=none;html=1;rounded=0;strokeColor=#00FF00;" edge="1" parent="1">
          <mxGeometry width="50" height="50" relative="1" as="geometry">
            <mxPoint x="160" y="150" as="sourcePoint" />
            <mxPoint x="240" y="150" as="targetPoint" />
          </mxGeometry>
        </mxCell>
        <mxCell id="ExKyeE7MDLRv1U1W7YxB-136" value="GPIO_27" style="edgeLabel;html=1;align=center;verticalAlign=middle;resizable=0;points=[];" vertex="1" connectable="0" parent="ExKyeE7MDLRv1U1W7YxB-135">
          <mxGeometry x="-0.5309" y="-3" relative="1" as="geometry">
            <mxPoint x="-49" y="-4" as="offset" />
          </mxGeometry>
        </mxCell>
        <mxCell id="ExKyeE7MDLRv1U1W7YxB-137" value="" style="endArrow=none;html=1;rounded=0;strokeColor=#00FF00;" edge="1" parent="1">
          <mxGeometry width="50" height="50" relative="1" as="geometry">
            <mxPoint x="159.06" y="177.87" as="sourcePoint" />
            <mxPoint x="239.06" y="177.87" as="targetPoint" />
          </mxGeometry>
        </mxCell>
        <mxCell id="ExKyeE7MDLRv1U1W7YxB-138" value="GPIO_22&lt;br&gt;" style="edgeLabel;html=1;align=center;verticalAlign=middle;resizable=0;points=[];" vertex="1" connectable="0" parent="ExKyeE7MDLRv1U1W7YxB-137">
          <mxGeometry x="-0.5309" y="-3" relative="1" as="geometry">
            <mxPoint x="-49" y="-4" as="offset" />
          </mxGeometry>
        </mxCell>
        <mxCell id="ExKyeE7MDLRv1U1W7YxB-139" value="INT_1" style="text;html=1;align=center;verticalAlign=middle;resizable=0;points=[];autosize=1;strokeColor=#00FF00;fillColor=none;" vertex="1" parent="1">
          <mxGeometry x="240" y="168" width="60" height="30" as="geometry" />
        </mxCell>
        <mxCell id="ExKyeE7MDLRv1U1W7YxB-140" value="INT_2" style="text;html=1;align=center;verticalAlign=middle;resizable=0;points=[];autosize=1;strokeColor=#00FF00;fillColor=none;" vertex="1" parent="1">
          <mxGeometry x="240" y="137" width="60" height="30" as="geometry" />
        </mxCell>
        <mxCell id="ExKyeE7MDLRv1U1W7YxB-141" value="" style="swimlane;startSize=0;strokeColor=#3399FF;" vertex="1" parent="1">
          <mxGeometry x="460" y="-200" width="580" height="470" as="geometry" />
        </mxCell>
        <mxCell id="ExKyeE7MDLRv1U1W7YxB-63" value="Module joystick" style="rounded=0;whiteSpace=wrap;html=1;strokeColor=#3399FF;" vertex="1" parent="ExKyeE7MDLRv1U1W7YxB-141">
          <mxGeometry x="2" y="410" width="120" height="60" as="geometry" />
        </mxCell>
        <mxCell id="ExKyeE7MDLRv1U1W7YxB-146" value="" style="endArrow=none;html=1;rounded=0;strokeColor=#FF3333;" edge="1" parent="1">
          <mxGeometry width="50" height="50" relative="1" as="geometry">
            <mxPoint y="-59.53" as="sourcePoint" />
            <mxPoint y="-74.53" as="targetPoint" />
          </mxGeometry>
        </mxCell>
        <mxCell id="ExKyeE7MDLRv1U1W7YxB-147" value="3.3 V-Out" style="edgeLabel;html=1;align=center;verticalAlign=middle;resizable=0;points=[];" vertex="1" connectable="0" parent="ExKyeE7MDLRv1U1W7YxB-146">
          <mxGeometry x="-0.4963" relative="1" as="geometry">
            <mxPoint y="14" as="offset" />
          </mxGeometry>
        </mxCell>
        <mxCell id="ExKyeE7MDLRv1U1W7YxB-148" value="Pin 1" style="rounded=0;whiteSpace=wrap;html=1;strokeColor=#FF3333;" vertex="1" parent="1">
          <mxGeometry x="-20" y="-89.53" width="40" height="15" as="geometry" />
        </mxCell>
        <mxCell id="ExKyeE7MDLRv1U1W7YxB-149" value="" style="swimlane;startSize=0;" vertex="1" parent="1">
          <mxGeometry x="470" y="860" width="410" height="280" as="geometry">
            <mxRectangle x="470" y="860" width="50" height="40" as="alternateBounds" />
          </mxGeometry>
        </mxCell>
        <mxCell id="ExKyeE7MDLRv1U1W7YxB-151" value="Module Ecran" style="rounded=0;whiteSpace=wrap;html=1;" vertex="1" parent="ExKyeE7MDLRv1U1W7YxB-149">
          <mxGeometry y="250" width="90" height="30" as="geometry" />
        </mxCell>
        <mxCell id="ExKyeE7MDLRv1U1W7YxB-152" value="Ecran" style="rounded=0;whiteSpace=wrap;html=1;" vertex="1" parent="ExKyeE7MDLRv1U1W7YxB-149">
          <mxGeometry x="109" y="90" width="192" height="90" as="geometry" />
        </mxCell>
        <mxCell id="ExKyeE7MDLRv1U1W7YxB-154" value="" style="endArrow=none;html=1;rounded=0;entryX=0.5;entryY=1;entryDx=0;entryDy=0;" edge="1" parent="ExKyeE7MDLRv1U1W7YxB-149" target="ExKyeE7MDLRv1U1W7YxB-152">
          <mxGeometry width="50" height="50" relative="1" as="geometry">
            <mxPoint x="205" y="250" as="sourcePoint" />
            <mxPoint x="190" y="210" as="targetPoint" />
          </mxGeometry>
        </mxCell>
        <mxCell id="ExKyeE7MDLRv1U1W7YxB-155" value="HDMI" style="text;html=1;align=center;verticalAlign=middle;resizable=0;points=[];autosize=1;strokeColor=none;fillColor=none;" vertex="1" parent="ExKyeE7MDLRv1U1W7YxB-149">
          <mxGeometry x="180" y="250" width="50" height="30" as="geometry" />
        </mxCell>
        <mxCell id="ExKyeE7MDLRv1U1W7YxB-156" value="" style="endArrow=none;html=1;rounded=0;strokeColor=#FF3333;" edge="1" parent="ExKyeE7MDLRv1U1W7YxB-149">
          <mxGeometry width="50" height="50" relative="1" as="geometry">
            <mxPoint x="204.57000000000005" y="90" as="sourcePoint" />
            <mxPoint x="205" y="40" as="targetPoint" />
          </mxGeometry>
        </mxCell>
        <mxCell id="ExKyeE7MDLRv1U1W7YxB-157" value="Micro-USB&lt;br&gt;" style="text;html=1;align=center;verticalAlign=middle;resizable=0;points=[];autosize=1;strokeColor=none;fillColor=none;" vertex="1" parent="1">
          <mxGeometry x="630" y="868" width="80" height="30" as="geometry" />
        </mxCell>
        <mxCell id="YSSqaLOxWCFZ-Wnd7nPn-2" value="" style="swimlane;startSize=0;" vertex="1" parent="1">
          <mxGeometry x="-110" y="830" width="330" height="440" as="geometry" />
        </mxCell>
        <mxCell id="YSSqaLOxWCFZ-Wnd7nPn-1" value="Boutton 1" style="rounded=0;whiteSpace=wrap;html=1;strokeColor=#FF8000;" vertex="1" parent="YSSqaLOxWCFZ-Wnd7nPn-2">
          <mxGeometry x="114.06" y="38" width="65.94" height="52" as="geometry" />
        </mxCell>
        <mxCell id="YSSqaLOxWCFZ-Wnd7nPn-3" value="Boutton 2" style="rounded=0;whiteSpace=wrap;html=1;strokeColor=#FF8000;" vertex="1" parent="YSSqaLOxWCFZ-Wnd7nPn-2">
          <mxGeometry x="114.06" y="100" width="65.94" height="52" as="geometry" />
        </mxCell>
        <mxCell id="YSSqaLOxWCFZ-Wnd7nPn-4" value="Boutton 3" style="rounded=0;whiteSpace=wrap;html=1;strokeColor=#FF8000;" vertex="1" parent="YSSqaLOxWCFZ-Wnd7nPn-2">
          <mxGeometry x="114.06" y="160" width="65.94" height="52" as="geometry" />
        </mxCell>
        <mxCell id="YSSqaLOxWCFZ-Wnd7nPn-5" value="Boutton 4" style="rounded=0;whiteSpace=wrap;html=1;strokeColor=#FF8000;" vertex="1" parent="YSSqaLOxWCFZ-Wnd7nPn-2">
          <mxGeometry x="114.06" y="220" width="65.94" height="52" as="geometry" />
        </mxCell>
        <mxCell id="YSSqaLOxWCFZ-Wnd7nPn-7" value="" style="endArrow=none;html=1;rounded=0;entryX=0;entryY=0.5;entryDx=0;entryDy=0;exitX=0.182;exitY=0.145;exitDx=0;exitDy=0;exitPerimeter=0;strokeColor=#FF8000;" edge="1" parent="YSSqaLOxWCFZ-Wnd7nPn-2" source="YSSqaLOxWCFZ-Wnd7nPn-2" target="YSSqaLOxWCFZ-Wnd7nPn-1">
          <mxGeometry width="50" height="50" relative="1" as="geometry">
            <mxPoint x="100" y="30" as="sourcePoint" />
            <mxPoint x="110" y="70" as="targetPoint" />
          </mxGeometry>
        </mxCell>
        <mxCell id="YSSqaLOxWCFZ-Wnd7nPn-8" value="" style="endArrow=none;html=1;rounded=0;entryX=0;entryY=0.5;entryDx=0;entryDy=0;exitX=0.182;exitY=0.145;exitDx=0;exitDy=0;exitPerimeter=0;strokeColor=#FF8000;" edge="1" parent="YSSqaLOxWCFZ-Wnd7nPn-2">
          <mxGeometry width="50" height="50" relative="1" as="geometry">
            <mxPoint x="60.06" y="125.60000000000002" as="sourcePoint" />
            <mxPoint x="114.06" y="125.60000000000002" as="targetPoint" />
          </mxGeometry>
        </mxCell>
        <mxCell id="YSSqaLOxWCFZ-Wnd7nPn-9" value="" style="endArrow=none;html=1;rounded=0;entryX=0;entryY=0.5;entryDx=0;entryDy=0;exitX=0.182;exitY=0.145;exitDx=0;exitDy=0;exitPerimeter=0;strokeColor=#FF8000;" edge="1" parent="YSSqaLOxWCFZ-Wnd7nPn-2">
          <mxGeometry width="50" height="50" relative="1" as="geometry">
            <mxPoint x="60.06" y="185.60000000000002" as="sourcePoint" />
            <mxPoint x="114.06" y="185.60000000000002" as="targetPoint" />
          </mxGeometry>
        </mxCell>
        <mxCell id="YSSqaLOxWCFZ-Wnd7nPn-10" value="" style="endArrow=none;html=1;rounded=0;entryX=0;entryY=0.5;entryDx=0;entryDy=0;exitX=0.182;exitY=0.145;exitDx=0;exitDy=0;exitPerimeter=0;strokeColor=#FF8000;" edge="1" parent="YSSqaLOxWCFZ-Wnd7nPn-2">
          <mxGeometry width="50" height="50" relative="1" as="geometry">
            <mxPoint x="60.06" y="245.5999999999999" as="sourcePoint" />
            <mxPoint x="114.06" y="245.5999999999999" as="targetPoint" />
          </mxGeometry>
        </mxCell>
        <mxCell id="YSSqaLOxWCFZ-Wnd7nPn-11" value="" style="endArrow=none;html=1;rounded=0;exitX=0.182;exitY=0.568;exitDx=0;exitDy=0;exitPerimeter=0;strokeColor=#FF8000;" edge="1" parent="YSSqaLOxWCFZ-Wnd7nPn-2">
          <mxGeometry width="50" height="50" relative="1" as="geometry">
            <mxPoint x="60.059999999999945" y="245.92000000000007" as="sourcePoint" />
            <mxPoint x="60" y="36" as="targetPoint" />
          </mxGeometry>
        </mxCell>
        <mxCell id="YSSqaLOxWCFZ-Wnd7nPn-12" value="Pin 4" style="edgeLabel;html=1;align=center;verticalAlign=middle;resizable=0;points=[];strokeColor=#FF8000;" vertex="1" connectable="0" parent="YSSqaLOxWCFZ-Wnd7nPn-11">
          <mxGeometry x="0.8312" relative="1" as="geometry">
            <mxPoint x="1" y="-24" as="offset" />
          </mxGeometry>
        </mxCell>
        <mxCell id="YSSqaLOxWCFZ-Wnd7nPn-29" value="" style="endArrow=none;html=1;rounded=0;entryX=0;entryY=0.5;entryDx=0;entryDy=0;exitX=0.182;exitY=0.145;exitDx=0;exitDy=0;exitPerimeter=0;strokeColor=#FF8000;" edge="1" parent="YSSqaLOxWCFZ-Wnd7nPn-2">
          <mxGeometry width="50" height="50" relative="1" as="geometry">
            <mxPoint x="180" y="63.40999999999997" as="sourcePoint" />
            <mxPoint x="234" y="63.40999999999997" as="targetPoint" />
          </mxGeometry>
        </mxCell>
        <mxCell id="YSSqaLOxWCFZ-Wnd7nPn-30" value="GPIO 5" style="edgeLabel;html=1;align=center;verticalAlign=middle;resizable=0;points=[];strokeColor=#FF8000;" vertex="1" connectable="0" parent="YSSqaLOxWCFZ-Wnd7nPn-29">
          <mxGeometry x="0.4328" y="3" relative="1" as="geometry">
            <mxPoint x="31" y="3" as="offset" />
          </mxGeometry>
        </mxCell>
        <mxCell id="YSSqaLOxWCFZ-Wnd7nPn-14" value="" style="endArrow=none;html=1;rounded=0;entryX=0;entryY=0.5;entryDx=0;entryDy=0;exitX=0.182;exitY=0.145;exitDx=0;exitDy=0;exitPerimeter=0;strokeColor=#FF8000;" edge="1" parent="1">
          <mxGeometry width="50" height="50" relative="1" as="geometry">
            <mxPoint x="70.06" y="955.6" as="sourcePoint" />
            <mxPoint x="124.06" y="955.6" as="targetPoint" />
          </mxGeometry>
        </mxCell>
        <mxCell id="YSSqaLOxWCFZ-Wnd7nPn-18" value="GPIO6" style="edgeLabel;html=1;align=center;verticalAlign=middle;resizable=0;points=[];strokeColor=#FF8000;" vertex="1" connectable="0" parent="YSSqaLOxWCFZ-Wnd7nPn-14">
          <mxGeometry x="0.2782" y="3" relative="1" as="geometry">
            <mxPoint x="36" y="3" as="offset" />
          </mxGeometry>
        </mxCell>
        <mxCell id="YSSqaLOxWCFZ-Wnd7nPn-15" value="" style="endArrow=none;html=1;rounded=0;entryX=0;entryY=0.5;entryDx=0;entryDy=0;exitX=0.182;exitY=0.145;exitDx=0;exitDy=0;exitPerimeter=0;strokeColor=#FF8000;" edge="1" parent="1">
          <mxGeometry width="50" height="50" relative="1" as="geometry">
            <mxPoint x="70.06" y="1015.5999999999999" as="sourcePoint" />
            <mxPoint x="124.06" y="1015.5999999999999" as="targetPoint" />
          </mxGeometry>
        </mxCell>
        <mxCell id="YSSqaLOxWCFZ-Wnd7nPn-19" value="GPIO13" style="edgeLabel;html=1;align=center;verticalAlign=middle;resizable=0;points=[];strokeColor=#FF8000;" vertex="1" connectable="0" parent="YSSqaLOxWCFZ-Wnd7nPn-15">
          <mxGeometry x="-0.0128" y="-1" relative="1" as="geometry">
            <mxPoint x="44" y="-1" as="offset" />
          </mxGeometry>
        </mxCell>
        <mxCell id="YSSqaLOxWCFZ-Wnd7nPn-16" value="" style="endArrow=none;html=1;rounded=0;entryX=0;entryY=0.5;entryDx=0;entryDy=0;exitX=0.182;exitY=0.145;exitDx=0;exitDy=0;exitPerimeter=0;strokeColor=#FF8000;" edge="1" parent="1">
          <mxGeometry width="50" height="50" relative="1" as="geometry">
            <mxPoint x="70.06" y="1075.6" as="sourcePoint" />
            <mxPoint x="124.06" y="1075.6" as="targetPoint" />
          </mxGeometry>
        </mxCell>
        <mxCell id="YSSqaLOxWCFZ-Wnd7nPn-20" value="GPIO26" style="edgeLabel;html=1;align=center;verticalAlign=middle;resizable=0;points=[];strokeColor=#FF8000;" vertex="1" connectable="0" parent="YSSqaLOxWCFZ-Wnd7nPn-16">
          <mxGeometry x="0.1459" y="1" relative="1" as="geometry">
            <mxPoint x="39" y="1" as="offset" />
          </mxGeometry>
        </mxCell>
        <mxCell id="YSSqaLOxWCFZ-Wnd7nPn-21" value="" style="endArrow=none;html=1;rounded=0;entryX=0;entryY=0.5;entryDx=0;entryDy=0;exitX=0.182;exitY=0.145;exitDx=0;exitDy=0;exitPerimeter=0;strokeColor=#FF8000;" edge="1" parent="1">
          <mxGeometry width="50" height="50" relative="1" as="geometry">
            <mxPoint x="-164" y="153" as="sourcePoint" />
            <mxPoint x="-110" y="153" as="targetPoint" />
          </mxGeometry>
        </mxCell>
        <mxCell id="YSSqaLOxWCFZ-Wnd7nPn-22" value="GPIO 5" style="edgeLabel;html=1;align=center;verticalAlign=middle;resizable=0;points=[];strokeColor=#FF8000;" vertex="1" connectable="0" parent="YSSqaLOxWCFZ-Wnd7nPn-21">
          <mxGeometry x="0.4328" y="3" relative="1" as="geometry">
            <mxPoint x="37" y="4" as="offset" />
          </mxGeometry>
        </mxCell>
        <mxCell id="YSSqaLOxWCFZ-Wnd7nPn-23" value="" style="endArrow=none;html=1;rounded=0;entryX=0;entryY=0.5;entryDx=0;entryDy=0;exitX=0.182;exitY=0.145;exitDx=0;exitDy=0;exitPerimeter=0;strokeColor=#FF8000;" edge="1" parent="1">
          <mxGeometry width="50" height="50" relative="1" as="geometry">
            <mxPoint x="-163.94" y="165.60000000000002" as="sourcePoint" />
            <mxPoint x="-109.94" y="165.60000000000002" as="targetPoint" />
          </mxGeometry>
        </mxCell>
        <mxCell id="YSSqaLOxWCFZ-Wnd7nPn-24" value="GPIO6" style="edgeLabel;html=1;align=center;verticalAlign=middle;resizable=0;points=[];strokeColor=#FF8000;" vertex="1" connectable="0" parent="YSSqaLOxWCFZ-Wnd7nPn-23">
          <mxGeometry x="0.2782" y="3" relative="1" as="geometry">
            <mxPoint x="40" y="3" as="offset" />
          </mxGeometry>
        </mxCell>
        <mxCell id="YSSqaLOxWCFZ-Wnd7nPn-25" value="" style="endArrow=none;html=1;rounded=0;entryX=0;entryY=0.5;entryDx=0;entryDy=0;exitX=0.182;exitY=0.145;exitDx=0;exitDy=0;exitPerimeter=0;strokeColor=#FF8000;" edge="1" parent="1">
          <mxGeometry width="50" height="50" relative="1" as="geometry">
            <mxPoint x="-163.94" y="179.5999999999999" as="sourcePoint" />
            <mxPoint x="-109.94" y="179.5999999999999" as="targetPoint" />
          </mxGeometry>
        </mxCell>
        <mxCell id="YSSqaLOxWCFZ-Wnd7nPn-26" value="GPIO13" style="edgeLabel;html=1;align=center;verticalAlign=middle;resizable=0;points=[];strokeColor=#FF8000;" vertex="1" connectable="0" parent="YSSqaLOxWCFZ-Wnd7nPn-25">
          <mxGeometry x="-0.0128" y="-1" relative="1" as="geometry">
            <mxPoint x="52" y="-2" as="offset" />
          </mxGeometry>
        </mxCell>
        <mxCell id="YSSqaLOxWCFZ-Wnd7nPn-27" value="" style="endArrow=none;html=1;rounded=0;entryX=0;entryY=0.5;entryDx=0;entryDy=0;exitX=0.182;exitY=0.145;exitDx=0;exitDy=0;exitPerimeter=0;strokeColor=#FF8000;" edge="1" parent="1">
          <mxGeometry width="50" height="50" relative="1" as="geometry">
            <mxPoint x="-163.94" y="192.5999999999999" as="sourcePoint" />
            <mxPoint x="-109.94" y="192.5999999999999" as="targetPoint" />
          </mxGeometry>
        </mxCell>
        <mxCell id="YSSqaLOxWCFZ-Wnd7nPn-28" value="GPIO26" style="edgeLabel;html=1;align=center;verticalAlign=middle;resizable=0;points=[];strokeColor=#FF8000;" vertex="1" connectable="0" parent="YSSqaLOxWCFZ-Wnd7nPn-27">
          <mxGeometry x="0.1459" y="1" relative="1" as="geometry">
            <mxPoint x="48" y="1" as="offset" />
          </mxGeometry>
        </mxCell>
      </root>
    </mxGraphModel>
  </diagram>
</mxfile>
